<?xml version="1.0" encoding="UTF-8"?>
<svg xmlns="http://www.w3.org/2000/svg" xmlns:xlink="http://www.w3.org/1999/xlink" width="120px" height="120px" viewBox="0 0 120 120" version="1.1">
<g id="surface1">
<path style=" stroke:none;fill-rule:nonzero;fill:rgb(0%,0%,0%);fill-opacity:1;" d="M 22.5 105 L 25 105 L 25 107.5 L 22.5 107.5 Z M 22.5 105 "/>
<path style=" stroke:none;fill-rule:nonzero;fill:rgb(0%,0%,0%);fill-opacity:1;" d="M 7.5 102.5 L 10 102.5 L 10 105 L 7.5 105 Z M 7.5 102.5 "/>
<path style=" stroke:none;fill-rule:nonzero;fill:rgb(0%,0%,0%);fill-opacity:1;" d="M 37.5 98.75 L 40 98.75 L 40 101.25 L 37.5 101.25 Z M 37.5 98.75 "/>
<path style=" stroke:none;fill-rule:nonzero;fill:rgb(0%,0%,0%);fill-opacity:1;" d="M 78.75 98.75 L 81.25 98.75 L 81.25 101.25 L 78.75 101.25 Z M 78.75 98.75 "/>
<path style=" stroke:none;fill-rule:nonzero;fill:rgb(0%,0%,0%);fill-opacity:1;" d="M 97.5 101.25 L 100 101.25 L 100 103.75 L 97.5 103.75 Z M 97.5 101.25 "/>
<path style=" stroke:none;fill-rule:nonzero;fill:rgb(0%,0%,0%);fill-opacity:1;" d="M 107.5 106.25 L 110 106.25 L 110 108.75 L 107.5 108.75 Z M 107.5 106.25 "/>
<path style=" stroke:none;fill-rule:nonzero;fill:rgb(0%,0%,0%);fill-opacity:1;" d="M 117.5 113.75 L 94.078125 111.285156 L 90.695312 113.539062 C 90.648438 113.570312 90.605469 113.597656 90.558594 113.621094 L 88.058594 114.867188 L 86.9375 112.632812 L 89.371094 111.417969 L 91.390625 110.070312 L 86.25 107.5 L 78.019531 107.5 L 73.382812 112.132812 C 73.148438 112.367188 72.828125 112.5 72.5 112.5 L 70 112.5 L 70 110 L 71.980469 110 L 75.824219 106.15625 L 71.25 102.5 L 62.5 102.5 L 62.5 92.46875 C 84.007812 91.804688 101.25 74.171875 101.25 52.5 C 79.578125 52.5 61.945312 69.742188 61.28125 91.25 L 59.96875 91.25 C 59.304688 69.742188 41.671875 52.5 20 52.5 C 20 74.171875 37.238281 91.804688 58.75 92.46875 L 58.75 102.5 L 48.75 102.5 L 44.375 106 L 46.941406 107.710938 C 47.125 107.832031 47.269531 107.996094 47.367188 108.191406 L 48.273438 110 L 52.5 110 L 52.5 112.5 L 47.5 112.5 C 47.023438 112.5 46.59375 112.234375 46.382812 111.8125 L 45.28125 109.601562 L 42.121094 107.5 L 33.75 107.5 L 27.382812 110.226562 L 30.75 112.75 L 29.25 114.75 L 24.636719 111.289062 L 2.5 113.75 L 2.460938 117.5 L 117.5 117.5 Z M 96.613281 55.363281 L 98.386719 57.136719 L 67.132812 88.382812 L 65.367188 86.617188 Z M 55.386719 88.402344 L 26.632812 60.90625 L 28.363281 59.09375 L 57.117188 86.597656 Z M 55.386719 88.402344 "/>
<path style=" stroke:none;fill-rule:nonzero;fill:rgb(0%,0%,0%);fill-opacity:1;" d="M 41.25 14.875 L 41.25 23.75 C 41.25 24.144531 41.433594 24.515625 41.75 24.75 L 51.25 31.875 L 51.25 60 L 53.75 60 L 53.75 31.25 C 53.75 30.859375 53.5625 30.488281 53.25 30.25 L 43.75 23.125 L 43.75 14.875 C 46.601562 14.296875 48.75 11.773438 48.75 8.75 C 48.75 5.296875 45.953125 2.5 42.5 2.5 C 39.046875 2.5 36.25 5.296875 36.25 8.75 C 36.25 11.773438 38.394531 14.296875 41.25 14.875 Z M 42.5 7.5 C 43.191406 7.5 43.75 8.058594 43.75 8.75 C 43.75 9.441406 43.191406 10 42.5 10 C 41.808594 10 41.25 9.441406 41.25 8.75 C 41.25 8.058594 41.808594 7.5 42.5 7.5 Z M 42.5 7.5 "/>
<path style=" stroke:none;fill-rule:nonzero;fill:rgb(0%,0%,0%);fill-opacity:1;" d="M 70 30.671875 L 76.945312 26.039062 C 77.292969 25.808594 77.5 25.414062 77.5 25 L 77.5 14.875 C 80.351562 14.296875 82.5 11.773438 82.5 8.75 C 82.5 5.296875 79.703125 2.5 76.25 2.5 C 72.796875 2.5 70 5.296875 70 8.75 C 70 11.773438 72.144531 14.296875 75 14.875 L 75 24.332031 L 68.058594 28.960938 C 67.710938 29.195312 67.5 29.582031 67.5 30 L 67.5 60 L 70 60 Z M 76.25 7.5 C 76.941406 7.5 77.5 8.058594 77.5 8.75 C 77.5 9.441406 76.941406 10 76.25 10 C 75.558594 10 75 9.441406 75 8.75 C 75 8.058594 75.558594 7.5 76.25 7.5 Z M 76.25 7.5 "/>
<path style=" stroke:none;fill-rule:nonzero;fill:rgb(0%,0%,0%);fill-opacity:1;" d="M 87.5 31.125 L 87.5 36.25 L 77.5 36.25 C 76.808594 36.25 76.25 36.8125 76.25 37.5 L 76.25 52.5 L 78.75 52.5 L 78.75 38.75 L 88.75 38.75 C 89.441406 38.75 90 38.1875 90 37.5 L 90 31.125 C 92.855469 30.542969 95 28.023438 95 25 C 95 21.546875 92.203125 18.75 88.75 18.75 C 85.296875 18.75 82.5 21.546875 82.5 25 C 82.5 28.023438 84.648438 30.542969 87.5 31.125 Z M 88.75 23.75 C 89.441406 23.75 90 24.308594 90 25 C 90 25.691406 89.441406 26.25 88.75 26.25 C 88.058594 26.25 87.5 25.691406 87.5 25 C 87.5 24.308594 88.058594 23.75 88.75 23.75 Z M 88.75 23.75 "/>
<path style=" stroke:none;fill-rule:nonzero;fill:rgb(0%,0%,0%);fill-opacity:1;" d="M 30 29.875 L 30 37.5 C 30 38.1875 30.558594 38.75 31.25 38.75 L 41.25 38.75 L 41.25 51.25 L 43.75 51.25 L 43.75 37.5 C 43.75 36.8125 43.191406 36.25 42.5 36.25 L 32.5 36.25 L 32.5 29.875 C 35.351562 29.296875 37.5 26.773438 37.5 23.75 C 37.5 20.296875 34.703125 17.5 31.25 17.5 C 27.796875 17.5 25 20.296875 25 23.75 C 25 26.773438 27.144531 29.296875 30 29.875 Z M 31.25 22.5 C 31.941406 22.5 32.5 23.058594 32.5 23.75 C 32.5 24.441406 31.941406 25 31.25 25 C 30.558594 25 30 24.441406 30 23.75 C 30 23.058594 30.558594 22.5 31.25 22.5 Z M 31.25 22.5 "/>
<path style=" stroke:none;fill-rule:nonzero;fill:rgb(0%,0%,0%);fill-opacity:1;" d="M 59.375 26.125 L 59.375 63.75 L 61.875 63.75 L 61.875 26.125 C 64.730469 25.546875 66.875 23.023438 66.875 20 C 66.875 16.546875 64.078125 13.75 60.625 13.75 C 57.171875 13.75 54.375 16.546875 54.375 20 C 54.375 23.023438 56.523438 25.546875 59.375 26.125 Z M 60.625 18.75 C 61.316406 18.75 61.875 19.308594 61.875 20 C 61.875 20.691406 61.316406 21.25 60.625 21.25 C 59.933594 21.25 59.375 20.691406 59.375 20 C 59.375 19.308594 59.933594 18.75 60.625 18.75 Z M 60.625 18.75 "/>
</g>
</svg>
