<?xml version="1.0" encoding="UTF-8"?>
<svg xmlns="http://www.w3.org/2000/svg" xmlns:xlink="http://www.w3.org/1999/xlink" width="80px" height="80px" viewBox="0 0 80 80" version="1.1">
<g id="surface1">
<path style=" stroke:none;fill-rule:nonzero;fill:rgb(0%,0%,0%);fill-opacity:1;" d="M 41.949219 7.484375 C 34.640625 7.484375 27.960938 11.605469 24.679688 18.136719 C 21.398438 24.664062 22.078125 32.484375 26.4375 38.347656 C 26.582031 38.539062 27.976562 40.316406 28.089844 40.472656 C 31.214844 44.777344 32.210938 47.554688 32.507812 48.625 L 32.261719 48.625 C 32.050781 48.625 31.847656 48.707031 31.695312 48.859375 C 31.546875 49.007812 31.460938 49.210938 31.460938 49.421875 L 31.460938 54.460938 C 31.460938 54.902344 31.820312 55.257812 32.261719 55.257812 L 52.03125 55.257812 C 52.242188 55.257812 52.445312 55.175781 52.59375 55.027344 C 52.746094 54.875 52.828125 54.671875 52.828125 54.460938 L 52.828125 49.421875 C 52.828125 48.980469 52.472656 48.625 52.03125 48.625 L 51.390625 48.625 C 51.683594 47.566406 52.667969 44.828125 55.726562 40.589844 C 55.898438 40.351562 57.214844 38.660156 57.289062 38.566406 C 59.886719 35.199219 61.289062 31.066406 61.273438 26.8125 C 61.261719 16.144531 52.617188 7.5 41.949219 7.484375 Z M 55.058594 36.859375 C 54.988281 36.953125 53.636719 38.6875 53.449219 38.949219 C 49.386719 44.574219 48.632812 47.855469 48.507812 48.636719 L 35.394531 48.636719 C 35.265625 47.855469 34.503906 44.539062 30.367188 38.835938 C 30.230469 38.648438 28.816406 36.84375 28.695312 36.679688 C 23.601562 29.835938 24.5625 20.238281 30.90625 14.539062 C 37.253906 8.835938 46.894531 8.902344 53.160156 14.695312 C 59.425781 20.484375 60.246094 30.09375 55.058594 36.867188 Z M 55.058594 36.859375 "/>
<path style=" stroke:none;fill-rule:nonzero;fill:rgb(0%,0%,0%);fill-opacity:1;" d="M 36.441406 59.804688 C 36.441406 60.332031 36.652344 60.839844 37.027344 61.214844 C 37.402344 61.585938 37.910156 61.796875 38.4375 61.796875 L 40.824219 61.796875 L 40.824219 63.996094 C 40.824219 65.722656 39.425781 67.121094 37.699219 67.121094 L 24.894531 67.121094 C 23.167969 67.121094 21.769531 65.722656 21.769531 63.996094 L 21.769531 56.535156 L 24.339844 56.535156 C 26.085938 56.535156 27.5 55.121094 27.5 53.375 L 27.5 48.546875 C 27.496094 46.878906 26.195312 45.5 24.53125 45.398438 L 24.53125 42.296875 L 21.875 42.296875 L 21.875 45.386719 L 19.316406 45.386719 L 19.316406 42.296875 L 16.660156 42.296875 L 16.660156 45.386719 L 16.542969 45.386719 C 14.796875 45.390625 13.382812 46.804688 13.382812 48.546875 L 13.382812 53.375 C 13.382812 55.121094 14.796875 56.535156 16.542969 56.535156 L 19.113281 56.535156 L 19.113281 63.996094 C 19.113281 67.1875 21.703125 69.777344 24.894531 69.777344 L 37.695312 69.777344 C 40.890625 69.777344 43.476562 67.1875 43.476562 63.996094 L 43.476562 61.796875 L 45.863281 61.796875 C 46.964844 61.796875 47.855469 60.902344 47.855469 59.804688 L 47.855469 57.5 L 36.449219 57.5 Z M 16.195312 53.375 L 16.195312 48.546875 C 16.195312 48.355469 16.351562 48.199219 16.542969 48.199219 L 24.34375 48.199219 C 24.535156 48.199219 24.691406 48.355469 24.691406 48.546875 L 24.691406 53.375 C 24.691406 53.566406 24.535156 53.722656 24.34375 53.722656 L 16.542969 53.722656 C 16.351562 53.722656 16.195312 53.566406 16.195312 53.375 Z M 16.195312 53.375 "/>
<path style=" stroke:none;fill-rule:nonzero;fill:rgb(0%,0%,0%);fill-opacity:1;" d="M 48.003906 28.148438 L 45 28.148438 C 44.667969 28.144531 44.359375 27.984375 44.171875 27.710938 C 43.988281 27.4375 43.945312 27.089844 44.0625 26.78125 L 46.589844 20.136719 C 46.707031 19.828125 46.664062 19.480469 46.476562 19.207031 C 46.289062 18.9375 45.980469 18.773438 45.652344 18.773438 L 39.117188 18.773438 C 38.640625 18.769531 38.230469 19.105469 38.132812 19.570312 L 35.3125 32.859375 C 35.25 33.15625 35.324219 33.464844 35.515625 33.703125 C 35.707031 33.9375 35.992188 34.074219 36.296875 34.074219 L 40.5625 34.074219 C 40.859375 34.074219 41.144531 34.210938 41.335938 34.441406 C 41.527344 34.671875 41.605469 34.976562 41.546875 35.273438 L 40.492188 40.753906 C 40.300781 41.757812 41.65625 42.257812 42.164062 41.378906 L 48.882812 29.660156 C 49.066406 29.347656 49.066406 28.960938 48.886719 28.648438 C 48.703125 28.335938 48.367188 28.144531 48.003906 28.148438 Z M 48.003906 28.148438 "/>
</g>
</svg>
