<?xml version="1.0" encoding="UTF-8"?>
<svg xmlns="http://www.w3.org/2000/svg" xmlns:xlink="http://www.w3.org/1999/xlink" width="80px" height="80px" viewBox="0 0 80 80" version="1.1">
<g id="surface1">
<path style=" stroke:none;fill-rule:evenodd;fill:rgb(0%,0%,0%);fill-opacity:1;" d="M 30.625 26.25 L 21.636719 26.25 C 21.308594 26.25 20.996094 26.378906 20.761719 26.609375 C 15.664062 31.601562 12.5 38.558594 12.5 46.25 C 12.5 61.425781 24.824219 73.75 40 73.75 C 55.175781 73.75 67.5 61.425781 67.5 46.25 C 67.5 38.558594 64.335938 31.601562 59.238281 26.609375 C 59.003906 26.378906 58.691406 26.25 58.363281 26.25 L 49.375 26.25 L 49.375 16.25 L 61.25 16.25 C 63.320312 16.25 65 14.570312 65 12.5 L 65 5 C 65 4.308594 64.441406 3.75 63.75 3.75 L 16.25 3.75 C 15.558594 3.75 15 4.308594 15 5 L 15 12.5 C 15 14.570312 16.679688 16.25 18.75 16.25 L 30.625 16.25 Z M 55.015625 66.234375 C 55.015625 66.226562 55.015625 66.222656 55.015625 66.214844 L 55.015625 57.5 C 55.015625 53.519531 53.4375 49.707031 50.625 46.894531 C 47.8125 44.078125 43.996094 42.5 40.015625 42.5 C 40.007812 42.5 39.992188 42.5 39.984375 42.5 C 36.003906 42.5 32.1875 44.078125 29.375 46.894531 C 26.5625 49.707031 24.984375 53.519531 24.984375 57.5 C 24.984375 62.261719 24.984375 66.214844 24.984375 66.214844 C 24.984375 66.222656 24.984375 66.226562 24.984375 66.234375 C 29.164062 69.382812 34.367188 71.25 40 71.25 C 45.632812 71.25 50.835938 69.382812 55.015625 66.234375 Z M 40 45.246094 C 33.792969 45.246094 28.75 50.289062 28.75 56.496094 C 28.75 62.703125 33.792969 67.746094 40 67.746094 C 46.207031 67.746094 51.25 62.703125 51.25 56.496094 C 51.25 50.289062 46.207031 45.246094 40 45.246094 Z M 40 47.746094 C 44.828125 47.746094 48.75 51.667969 48.75 56.496094 C 48.75 61.328125 44.828125 65.246094 40 65.246094 C 35.171875 65.246094 31.25 61.328125 31.25 56.496094 C 31.25 51.667969 35.171875 47.746094 40 47.746094 Z M 57.515625 64.078125 C 62.136719 59.542969 65 53.226562 65 46.25 C 65 39.441406 62.269531 33.261719 57.847656 28.75 C 57.847656 28.75 22.152344 28.75 22.152344 28.75 C 17.730469 33.261719 15 39.441406 15 46.25 C 15 53.226562 17.863281 59.542969 22.484375 64.078125 L 22.484375 57.5 C 22.484375 52.859375 24.328125 48.40625 27.609375 45.125 C 30.890625 41.84375 35.339844 40 39.984375 40 C 39.992188 40 40.007812 40 40.015625 40 C 44.660156 40 49.109375 41.84375 52.390625 45.125 C 55.671875 48.40625 57.515625 52.859375 57.515625 57.5 Z M 41.773438 59.433594 C 41.902344 59.285156 41.875 59.054688 41.710938 58.945312 C 41.21875 58.613281 40.628906 58.398438 39.996094 58.398438 C 39.363281 58.398438 38.773438 58.613281 38.28125 58.941406 C 38.117188 59.050781 38.089844 59.285156 38.222656 59.433594 L 39.757812 61.144531 C 39.886719 61.285156 40.105469 61.285156 40.234375 61.144531 Z M 39.996094 56.976562 C 41.03125 56.976562 41.984375 57.316406 42.753906 57.890625 C 42.890625 57.992188 43.078125 57.984375 43.191406 57.859375 L 43.742188 57.246094 C 43.863281 57.109375 43.851562 56.890625 43.707031 56.777344 C 42.679688 55.980469 41.394531 55.46875 39.996094 55.46875 C 38.601562 55.46875 37.316406 55.976562 36.292969 56.769531 C 36.144531 56.886719 36.132812 57.105469 36.257812 57.242188 L 36.804688 57.855469 C 36.917969 57.980469 37.105469 57.992188 37.238281 57.890625 C 38.007812 57.316406 38.960938 56.976562 39.996094 56.976562 Z M 39.996094 54.003906 C 41.792969 54.003906 43.441406 54.632812 44.742188 55.675781 C 44.875 55.785156 45.066406 55.773438 45.179688 55.644531 L 45.675781 55.09375 C 45.796875 54.957031 45.785156 54.742188 45.644531 54.625 C 44.101562 53.363281 42.140625 52.5 39.996094 52.5 C 37.855469 52.5 35.894531 53.359375 34.355469 54.621094 C 34.214844 54.734375 34.203125 54.953125 34.324219 55.085938 L 34.816406 55.640625 C 34.933594 55.765625 35.125 55.777344 35.257812 55.671875 C 36.554688 54.632812 38.199219 54.003906 39.996094 54.003906 Z M 56.25 32.5 C 56.941406 32.5 57.5 33.058594 57.5 33.75 C 57.5 34.441406 56.941406 35 56.25 35 C 55.558594 35 55 34.441406 55 33.75 C 55 33.058594 55.558594 32.5 56.25 32.5 Z M 51.25 32.5 C 51.941406 32.5 52.5 33.058594 52.5 33.75 C 52.5 34.441406 51.941406 35 51.25 35 C 50.558594 35 50 34.441406 50 33.75 C 50 33.058594 50.558594 32.5 51.25 32.5 Z M 46.875 26.25 L 33.125 26.25 C 33.125 26.25 33.125 16.25 33.125 16.25 L 46.875 16.25 Z M 37.1875 22.5 L 42.8125 22.5 C 43.503906 22.5 44.0625 21.941406 44.0625 21.25 C 44.0625 20.558594 43.503906 20 42.8125 20 L 37.1875 20 C 36.496094 20 35.9375 20.558594 35.9375 21.25 C 35.9375 21.941406 36.496094 22.5 37.1875 22.5 Z M 26.25 6.25 L 17.5 6.25 C 17.5 6.25 17.5 12.5 17.5 12.5 C 17.5 13.191406 18.058594 13.75 18.75 13.75 L 61.25 13.75 C 61.941406 13.75 62.5 13.191406 62.5 12.5 L 62.5 6.25 L 53.75 6.25 L 53.75 7.5 C 53.75 8.496094 53.355469 9.449219 52.652344 10.152344 C 51.949219 10.855469 50.996094 11.25 50 11.25 C 45.210938 11.25 34.789062 11.25 30 11.25 C 29.003906 11.25 28.050781 10.855469 27.347656 10.152344 C 26.644531 9.449219 26.25 8.496094 26.25 7.5 Z M 28.75 6.25 L 51.25 6.25 L 51.25 7.5 C 51.25 7.832031 51.117188 8.148438 50.882812 8.382812 C 50.648438 8.617188 50.332031 8.75 50 8.75 L 30 8.75 C 29.667969 8.75 29.351562 8.617188 29.117188 8.382812 C 28.882812 8.148438 28.75 7.832031 28.75 7.5 Z M 28.75 6.25 "/>
</g>
</svg>
