<?xml version="1.0" encoding="UTF-8"?>
<svg xmlns="http://www.w3.org/2000/svg" xmlns:xlink="http://www.w3.org/1999/xlink" width="120px" height="120px" viewBox="0 0 120 120" version="1.1">
<g id="surface1">
<path style=" stroke:none;fill-rule:nonzero;fill:rgb(6.27451%,9.411765%,12.54902%);fill-opacity:1;" d="M 112.5 56.25 C 111.71875 56.246094 110.957031 55.996094 110.324219 55.539062 L 60 19.613281 L 9.675781 55.539062 C 8 56.527344 5.847656 56.074219 4.714844 54.492188 C 3.582031 52.914062 3.847656 50.726562 5.324219 49.460938 L 57.824219 11.960938 C 59.125 11.035156 60.875 11.035156 62.175781 11.960938 L 114.675781 49.460938 C 115.988281 50.414062 116.542969 52.101562 116.046875 53.644531 C 115.550781 55.1875 114.121094 56.238281 112.5 56.25 Z M 112.5 56.25 "/>
<path style=" stroke:none;fill-rule:nonzero;fill:rgb(6.27451%,9.411765%,12.54902%);fill-opacity:1;" d="M 18.75 33.75 C 16.679688 33.75 15 32.070312 15 30 L 15 15 C 15 12.929688 16.679688 11.25 18.75 11.25 L 33.75 11.25 C 35.820312 11.25 37.5 12.929688 37.5 15 C 37.5 17.070312 35.820312 18.75 33.75 18.75 L 22.5 18.75 L 22.5 30 C 22.5 32.070312 20.820312 33.75 18.75 33.75 Z M 18.75 33.75 "/>
<path style=" stroke:none;fill-rule:nonzero;fill:rgb(6.27451%,9.411765%,12.54902%);fill-opacity:1;" d="M 93.75 108.75 L 75 108.75 C 72.929688 108.75 71.25 107.070312 71.25 105 L 71.25 78.75 L 48.75 78.75 L 48.75 105 C 48.75 107.070312 47.070312 108.75 45 108.75 L 26.25 108.75 C 20.035156 108.75 15 103.714844 15 97.5 L 15 60 C 15 57.929688 16.679688 56.25 18.75 56.25 C 20.820312 56.25 22.5 57.929688 22.5 60 L 22.5 97.5 C 22.5 99.570312 24.179688 101.25 26.25 101.25 L 41.25 101.25 L 41.25 75 C 41.25 72.929688 42.929688 71.25 45 71.25 L 75 71.25 C 77.070312 71.25 78.75 72.929688 78.75 75 L 78.75 101.25 L 93.75 101.25 C 95.820312 101.25 97.5 99.570312 97.5 97.5 L 97.5 60 C 97.5 57.929688 99.179688 56.25 101.25 56.25 C 103.320312 56.25 105 57.929688 105 60 L 105 97.5 C 105 103.714844 99.964844 108.75 93.75 108.75 Z M 93.75 108.75 "/>
</g>
</svg>
