<?xml version="1.0" encoding="UTF-8"?>
<svg xmlns="http://www.w3.org/2000/svg" xmlns:xlink="http://www.w3.org/1999/xlink" width="103px" height="120px" viewBox="0 0 103 119" version="1.1">
<g id="surface1">
<path style=" stroke:none;fill-rule:evenodd;fill:rgb(11.372549%,11.372549%,11.372549%);fill-opacity:1;" d="M 91.554688 28.332031 L 80.109375 28.332031 C 80.109375 12.691406 67.292969 0 51.5 0 C 35.707031 0 22.890625 12.691406 22.890625 28.332031 L 11.445312 28.332031 C 5.148438 28.332031 0 33.433594 0 39.667969 L 0 107.667969 C 0 113.898438 5.148438 119 11.445312 119 L 91.554688 119 C 97.851562 119 103 113.898438 103 107.667969 L 103 39.667969 C 103 33.433594 97.851562 28.332031 91.554688 28.332031 Z M 51.5 11.332031 C 61 11.332031 68.667969 18.925781 68.667969 28.332031 L 34.332031 28.332031 C 34.332031 18.925781 42 11.332031 51.5 11.332031 Z M 51.5 68 C 38.167969 68 26.949219 58.988281 23.804688 46.75 C 22.832031 43.179688 25.632812 39.667969 29.355469 39.667969 C 32.042969 39.667969 34.21875 41.59375 34.964844 44.199219 C 36.964844 51.394531 43.601562 56.667969 51.5 56.667969 C 59.398438 56.667969 66.035156 51.394531 68.035156 44.199219 C 68.78125 41.59375 70.957031 39.667969 73.644531 39.667969 C 77.367188 39.667969 80.109375 43.179688 79.195312 46.75 C 76.050781 58.988281 64.832031 68 51.5 68 Z M 51.5 68 "/>
</g>
</svg>
