<?xml version="1.0" encoding="UTF-8"?>
<svg xmlns="http://www.w3.org/2000/svg" xmlns:xlink="http://www.w3.org/1999/xlink" width="36px" height="50px" viewBox="0 0 36 50" version="1.1">
<g id="surface1">
<path style=" stroke:none;fill-rule:nonzero;fill:rgb(0%,0%,0%);fill-opacity:1;" d="M 19.097656 22.550781 C 19.097656 23.164062 18.828125 23.71875 18.402344 24.105469 C 19.222656 24.054688 20 23.933594 20.730469 23.753906 L 19.371094 25.738281 L 23.753906 28.675781 C 23.683594 28.46875 23.640625 28.253906 23.636719 28.027344 C 23.636719 27.960938 23.636719 27.898438 23.644531 27.832031 L 20.261719 25.570312 L 24.105469 19.960938 L 27.457031 22.203125 C 27.558594 22.011719 27.65625 21.820312 27.742188 21.628906 L 26.625 20.878906 C 26.648438 20.832031 26.671875 20.789062 26.695312 20.742188 C 26.6875 20.539062 26.683594 20.335938 26.679688 20.128906 C 27.058594 19.710938 27.398438 19.28125 27.707031 18.851562 C 27.828125 19.542969 27.9375 20.253906 28.023438 20.972656 C 28.460938 19.859375 28.683594 18.761719 28.691406 17.6875 C 28.691406 16.371094 28.335938 15.46875 28.183594 15.140625 C 28.144531 15.054688 28.113281 15.003906 28.105469 14.984375 C 27.5 14.011719 27.808594 12.710938 28.800781 12.097656 C 29.144531 11.886719 29.535156 11.773438 29.9375 11.773438 C 30.679688 11.773438 31.359375 12.144531 31.753906 12.769531 C 31.957031 13.09375 32.96875 14.84375 32.972656 17.691406 C 32.980469 19.441406 32.578125 21.832031 31.03125 24.597656 L 31.285156 24.769531 L 27.441406 30.378906 L 26.714844 29.890625 C 26.457031 30.011719 26.171875 30.085938 25.878906 30.097656 L 26.757812 30.6875 C 26.40625 32.5 26.140625 34.667969 26.140625 37.09375 C 26.136719 40.417969 26.644531 44.226562 28.136719 48.207031 C 28.535156 49.273438 29.558594 49.933594 30.644531 49.933594 C 30.953125 49.933594 31.269531 49.878906 31.574219 49.769531 C 32.960938 49.261719 33.667969 47.738281 33.15625 46.367188 C 31.917969 43.058594 31.492188 39.890625 31.492188 37.09375 C 31.492188 34.101562 31.980469 31.535156 32.464844 29.742188 C 32.550781 29.433594 32.632812 29.148438 32.714844 28.886719 C 34.066406 28.546875 35.289062 27.640625 35.742188 25.339844 C 36.296875 20.632812 35.984375 17.855469 34.527344 13.582031 C 33.449219 10.480469 30.796875 9.5 28.96875 9.949219 C 28.039062 10.179688 27.375 10.945312 27.027344 11.917969 C 26.605469 12.820312 26.152344 14.140625 25.75 15.535156 C 25.542969 15.925781 25.304688 16.324219 25.035156 16.71875 C 24.3125 17.773438 23.375 18.777344 22.171875 19.511719 C 21.066406 20.1875 19.742188 20.648438 18.039062 20.726562 C 18.667969 21.09375 19.097656 21.773438 19.097656 22.550781 Z M 19.097656 22.550781 "/>
<path style=" stroke:none;fill-rule:nonzero;fill:rgb(0%,0%,0%);fill-opacity:1;" d="M 30.226562 3.75 C 29.621094 1.1875 27.03125 -0.40625 24.441406 0.191406 C 21.851562 0.789062 20.238281 3.347656 20.84375 5.910156 C 21.445312 8.472656 24.035156 10.066406 26.625 9.46875 C 29.21875 8.871094 30.828125 6.3125 30.226562 3.75 Z M 30.226562 3.75 "/>
<path style=" stroke:none;fill-rule:nonzero;fill:rgb(0%,0%,0%);fill-opacity:1;" d="M 22.226562 25.328125 L 24.582031 21.996094 L 24.933594 22.238281 L 22.578125 25.570312 Z M 22.226562 25.328125 "/>
<path style=" stroke:none;fill-rule:nonzero;fill:rgb(0%,0%,0%);fill-opacity:1;" d="M 23.726562 26.335938 L 26.082031 23 L 26.433594 23.246094 L 24.078125 26.578125 Z M 23.726562 26.335938 "/>
<path style=" stroke:none;fill-rule:nonzero;fill:rgb(0%,0%,0%);fill-opacity:1;" d="M 32.546875 17.691406 C 32.542969 14.875 31.503906 13.167969 31.390625 12.992188 C 30.886719 12.199219 29.832031 11.960938 29.03125 12.457031 C 28.230469 12.949219 27.988281 13.988281 28.480469 14.777344 C 28.480469 14.777344 28.480469 14.777344 28.480469 14.78125 C 28.492188 14.800781 28.523438 14.859375 28.574219 14.960938 C 28.753906 15.355469 29.121094 16.308594 29.117188 17.691406 C 29.105469 19.753906 28.355469 22.867188 24.542969 26.8125 C 23.886719 27.484375 23.910156 28.558594 24.59375 29.207031 C 24.925781 29.523438 25.351562 29.679688 25.777344 29.679688 C 26.230469 29.679688 26.679688 29.503906 27.015625 29.160156 C 31.328125 24.742188 32.558594 20.65625 32.546875 17.691406 Z M 32.546875 17.691406 "/>
<path style=" stroke:none;fill-rule:nonzero;fill:rgb(0%,0%,0%);fill-opacity:1;" d="M 11.558594 0.191406 C 8.964844 -0.40625 6.375 1.1875 5.773438 3.75 C 5.167969 6.3125 6.78125 8.871094 9.371094 9.46875 C 11.964844 10.066406 14.554688 8.472656 15.15625 5.910156 C 15.761719 3.347656 14.148438 0.789062 11.558594 0.191406 Z M 11.558594 0.191406 "/>
<path style=" stroke:none;fill-rule:nonzero;fill:rgb(0%,0%,0%);fill-opacity:1;" d="M 3.285156 28.886719 C 3.832031 30.660156 4.511719 33.585938 4.507812 37.09375 C 4.503906 39.890625 4.082031 43.058594 2.84375 46.367188 C 2.328125 47.738281 3.039062 49.261719 4.425781 49.769531 C 4.730469 49.878906 5.046875 49.933594 5.355469 49.933594 C 6.441406 49.933594 7.464844 49.273438 7.863281 48.203125 C 9.355469 44.226562 9.859375 40.417969 9.859375 37.09375 C 9.851562 31.789062 8.59375 27.710938 7.914062 25.882812 C 7.746094 24.640625 7.757812 23.324219 7.867188 22.015625 C 6.902344 21.277344 6.0625 20.390625 5.394531 19.386719 C 3.867188 17.089844 3.558594 14.882812 3.496094 14.039062 L 3.492188 14.007812 C 3.441406 12.820312 4.355469 11.828125 5.535156 11.777344 C 5.566406 11.773438 5.601562 11.773438 5.632812 11.773438 C 6.78125 11.773438 7.71875 12.664062 7.773438 13.796875 C 7.773438 13.804688 7.773438 13.832031 7.78125 13.875 C 7.789062 13.964844 7.808594 14.113281 7.84375 14.300781 C 7.910156 14.652344 8.046875 15.203125 8.304688 15.820312 C 8.429688 16.109375 8.570312 16.382812 8.71875 16.644531 C 8.835938 16.074219 8.949219 15.535156 9.046875 15.03125 C 9.664062 12.921875 8.859375 10.402344 7.03125 9.949219 C 5.203125 9.5 2.550781 10.480469 1.472656 13.582031 C 0.015625 17.855469 -0.296875 20.632812 0.257812 25.339844 C 0.710938 27.640625 1.933594 28.546875 3.285156 28.886719 Z M 3.285156 28.886719 "/>
<path style=" stroke:none;fill-rule:nonzero;fill:rgb(0%,0%,0%);fill-opacity:1;" d="M 7.425781 14.378906 C 7.386719 14.179688 7.367188 14.019531 7.355469 13.921875 C 7.347656 13.871094 7.347656 13.839844 7.34375 13.820312 L 7.34375 13.816406 C 7.300781 12.878906 6.5 12.15625 5.554688 12.199219 C 4.609375 12.242188 3.878906 13.035156 3.921875 13.96875 C 3.9375 14.136719 4.039062 16.574219 5.75 19.15625 C 6.605469 20.441406 7.890625 21.742188 9.722656 22.695312 C 11.546875 23.652344 13.886719 24.246094 16.808594 24.246094 C 16.8125 24.246094 16.820312 24.246094 16.824219 24.246094 C 16.875 24.246094 16.917969 24.246094 16.953125 24.246094 C 17.902344 24.246094 18.667969 23.484375 18.667969 22.550781 C 18.667969 21.613281 17.902344 20.855469 16.953125 20.855469 C 16.902344 20.855469 16.859375 20.855469 16.824219 20.855469 C 14.355469 20.855469 12.601562 20.367188 11.320312 19.699219 C 9.410156 18.699219 8.449219 17.25 7.910156 15.980469 C 7.644531 15.351562 7.5 14.78125 7.425781 14.378906 Z M 7.425781 14.378906 "/>
</g>
</svg>
