<?xml version="1.0" encoding="UTF-8"?>
<svg xmlns="http://www.w3.org/2000/svg" xmlns:xlink="http://www.w3.org/1999/xlink" width="50px" height="50px" viewBox="0 0 50 50" version="1.1">
<g id="surface1">
<path style=" stroke:none;fill-rule:nonzero;fill:rgb(0%,0%,0%);fill-opacity:1;" d="M 48.988281 27.164062 C 47.164062 25.203125 45.769531 22.886719 44.894531 20.355469 C 44.859375 12.613281 40.449219 5.558594 33.503906 2.136719 C 26.5625 -1.289062 18.28125 -0.492188 12.117188 4.191406 C 5.957031 8.878906 2.972656 16.644531 4.410156 24.25 L 0.757812 24.25 C 0.339844 24.25 0 24.589844 0 25.007812 C 0 25.425781 0.339844 25.765625 0.757812 25.765625 L 8.078125 25.765625 L 8.078125 38.382812 L 0.757812 38.382812 C 0.339844 38.382812 0 38.722656 0 39.140625 C 0 39.558594 0.339844 39.898438 0.757812 39.898438 L 11.976562 39.898438 C 12.710938 42.960938 13.097656 46.097656 13.128906 49.246094 C 13.15625 49.648438 13.492188 49.960938 13.894531 49.957031 C 14.296875 49.949219 14.625 49.632812 14.644531 49.230469 C 14.609375 46.089844 14.242188 42.960938 13.554688 39.898438 L 27.652344 39.898438 C 28.800781 39.894531 29.878906 39.359375 30.578125 38.453125 C 31.28125 37.542969 31.523438 36.363281 31.234375 35.253906 C 32.214844 34.84375 32.953125 34.015625 33.246094 32.996094 C 33.535156 31.976562 33.347656 30.882812 32.730469 30.019531 C 33.429688 29.390625 33.820312 28.488281 33.804688 27.550781 C 33.789062 26.609375 33.371094 25.722656 32.652344 25.117188 C 33.558594 24.128906 33.828125 22.710938 33.347656 21.460938 C 32.863281 20.207031 31.71875 19.335938 30.382812 19.210938 L 21.933594 19.210938 C 23.304688 13.589844 21.058594 5.960938 14.5625 8.546875 C 14.28125 8.707031 14.136719 9.035156 14.207031 9.355469 C 14.65625 11.128906 14.804688 12.96875 14.652344 14.792969 C 13.683594 18.074219 9.371094 21.324219 8.210938 24.25 L 5.957031 24.25 C 4.507812 17.183594 7.203125 9.910156 12.90625 5.5 C 18.609375 1.085938 26.324219 0.300781 32.800781 3.476562 C 39.273438 6.652344 43.378906 13.234375 43.378906 20.445312 C 44.203125 23.339844 45.734375 25.984375 47.835938 28.136719 C 48.386719 28.960938 48.984375 29.636719 47.816406 30.367188 C 46.503906 31.101562 45.144531 31.746094 43.746094 32.300781 C 43.421875 32.425781 43.226562 32.757812 43.269531 33.105469 C 43.589844 35.480469 43.617188 37.890625 43.351562 40.277344 C 43.128906 41.40625 40.582031 42.164062 37 42.164062 C 36.117188 42.089844 35.242188 42.398438 34.605469 43.015625 C 33.964844 43.632812 33.625 44.496094 33.671875 45.382812 L 33.671875 49.246094 C 33.671875 49.664062 34.011719 50.003906 34.429688 50.003906 C 34.847656 50.003906 35.1875 49.664062 35.1875 49.246094 L 35.1875 45.375 C 35.152344 44.894531 35.339844 44.421875 35.691406 44.09375 C 36.042969 43.761719 36.523438 43.609375 37 43.671875 C 46.140625 43.625 45.34375 40.410156 44.839844 33.484375 C 47.414062 32.335938 52.054688 30.886719 48.988281 27.164062 Z M 9.582031 25.007812 C 10.554688 22.152344 15.214844 18.6875 16.089844 15.277344 C 16.347656 13.425781 16.257812 11.539062 15.824219 9.71875 C 18.523438 9.027344 20.347656 10.742188 20.726562 14.550781 C 20.882812 16.300781 20.714844 18.0625 20.234375 19.75 C 20.167969 19.980469 20.210938 20.226562 20.355469 20.417969 C 20.496094 20.609375 20.722656 20.722656 20.960938 20.722656 L 30.378906 20.722656 C 31.351562 20.816406 32.085938 21.636719 32.070312 22.609375 C 32.160156 23.417969 31.695312 24.1875 30.9375 24.480469 C 30.519531 24.480469 30.179688 24.820312 30.179688 25.238281 C 30.179688 25.65625 30.519531 25.996094 30.9375 25.996094 C 31.742188 26.082031 32.339844 26.777344 32.304688 27.582031 C 32.320312 28.816406 31.09375 29.050781 30.910156 29.867188 C 30.933594 30.648438 31.96875 31.050781 31.898438 31.933594 C 31.863281 32.980469 31.105469 33.859375 30.074219 34.050781 C 29.835938 34.097656 29.636719 34.257812 29.535156 34.480469 C 29.28125 35.078125 29.945312 35.59375 29.851562 36.214844 C 29.820312 37.410156 28.847656 38.371094 27.648438 38.382812 L 9.582031 38.382812 Z M 4.03125 35.101562 C 4.054688 34.699219 4.386719 34.386719 4.789062 34.386719 C 5.191406 34.386719 5.523438 34.699219 5.546875 35.101562 C 5.503906 35.488281 5.179688 35.777344 4.792969 35.777344 C 4.40625 35.777344 4.082031 35.488281 4.039062 35.101562 Z M 4.03125 35.101562 "/>
</g>
</svg>
