<?xml version="1.0" encoding="UTF-8"?>
<svg xmlns="http://www.w3.org/2000/svg" xmlns:xlink="http://www.w3.org/1999/xlink" width="50px" height="54px" viewBox="0 0 50 52" version="1.1">
<g id="surface1">
<path style=" stroke:none;fill-rule:nonzero;fill:rgb(0%,0%,0%);fill-opacity:1;" d="M 43.804688 34.9375 C 44.339844 42.203125 45.171875 45.5625 35.539062 45.605469 C 35.03125 45.542969 34.523438 45.703125 34.152344 46.050781 C 33.78125 46.398438 33.585938 46.890625 33.621094 47.394531 L 33.621094 51.226562 C 33.597656 51.644531 33.246094 51.972656 32.824219 51.972656 C 32.402344 51.972656 32.050781 51.644531 32.03125 51.226562 L 32.03125 47.394531 C 31.980469 46.464844 32.339844 45.5625 33.011719 44.917969 C 33.6875 44.269531 34.609375 43.949219 35.542969 44.027344 C 39.324219 44.027344 42.015625 43.234375 42.242188 42.046875 C 42.523438 39.550781 42.496094 37.027344 42.164062 34.535156 C 42.113281 34.171875 42.320312 33.824219 42.664062 33.695312 C 44.136719 33.113281 45.570312 32.441406 46.957031 31.671875 C 48.261719 30.984375 47.390625 29.890625 46.980469 29.347656 C 44.769531 27.085938 43.160156 24.320312 42.296875 21.292969 C 41.183594 -5 3.453125 -4.996094 2.359375 21.285156 C 1.941406 28.257812 7.335938 34.21875 10.1875 39.90625 C 11.363281 43.5625 11.957031 47.378906 11.949219 51.21875 C 11.953125 51.65625 11.601562 52.011719 11.160156 52.015625 C 10.722656 52.023438 10.363281 51.671875 10.359375 51.234375 C 10.355469 47.617188 9.808594 44.015625 8.738281 40.554688 C 5.695312 34.722656 0.324219 28.484375 0.777344 21.285156 C 1.949219 -7.042969 42.582031 -7.117188 43.878906 21.1875 C 44.804688 23.839844 46.277344 26.265625 48.203125 28.320312 C 51.425781 32.21875 46.523438 33.726562 43.804688 34.9375 Z M 34.785156 30.753906 L 34.785156 26.550781 C 34.785156 26.113281 34.425781 25.757812 33.988281 25.757812 C 33.546875 25.757812 33.191406 26.113281 33.191406 26.550781 L 33.191406 30.761719 C 33.191406 31.488281 32.597656 32.078125 31.867188 32.078125 L 27.621094 32.078125 C 27.183594 32.078125 26.828125 32.433594 26.828125 32.867188 C 26.828125 33.304688 27.183594 33.660156 27.621094 33.660156 L 31.867188 33.660156 C 33.476562 33.65625 34.78125 32.359375 34.785156 30.761719 Z M 31.867188 8.902344 L 27.621094 8.902344 C 27.199219 8.925781 26.871094 9.269531 26.871094 9.691406 C 26.871094 10.109375 27.199219 10.457031 27.621094 10.480469 L 31.867188 10.480469 C 32.597656 10.480469 33.191406 11.070312 33.191406 11.796875 L 33.191406 16.019531 C 33.191406 16.457031 33.546875 16.808594 33.988281 16.808594 C 34.425781 16.808594 34.785156 16.457031 34.785156 16.019531 L 34.785156 11.808594 C 34.78125 10.207031 33.476562 8.910156 31.867188 8.910156 Z M 11.445312 16.019531 L 11.445312 11.808594 C 11.449219 11.082031 12.039062 10.492188 12.773438 10.488281 L 17.015625 10.488281 C 17.4375 10.464844 17.769531 10.121094 17.769531 9.699219 C 17.769531 9.28125 17.4375 8.933594 17.015625 8.910156 L 12.773438 8.910156 C 11.160156 8.910156 9.855469 10.207031 9.855469 11.808594 L 9.855469 16.019531 C 9.855469 16.457031 10.210938 16.808594 10.648438 16.808594 C 11.089844 16.808594 11.445312 16.457031 11.445312 16.019531 Z M 17.015625 32.082031 L 12.773438 32.082031 C 12.039062 32.078125 11.449219 31.492188 11.445312 30.765625 L 11.445312 26.550781 C 11.445312 26.113281 11.089844 25.757812 10.648438 25.757812 C 10.210938 25.757812 9.855469 26.113281 9.855469 26.550781 L 9.855469 30.761719 C 9.855469 32.359375 11.160156 33.65625 12.773438 33.660156 L 17.015625 33.660156 C 17.4375 33.636719 17.769531 33.289062 17.769531 32.871094 C 17.769531 32.449219 17.4375 32.101562 17.015625 32.082031 Z M 27.359375 23.394531 C 27.355469 24.992188 26.050781 26.289062 24.441406 26.289062 L 20.195312 26.289062 C 18.585938 26.289062 17.28125 24.992188 17.28125 23.394531 L 17.28125 19.179688 C 17.277344 18.410156 17.585938 17.671875 18.132812 17.125 C 18.679688 16.578125 19.421875 16.273438 20.195312 16.273438 L 24.441406 16.273438 C 25.214844 16.273438 25.957031 16.578125 26.507812 17.125 C 27.054688 17.671875 27.359375 18.410156 27.359375 19.179688 Z M 25.765625 19.179688 C 25.765625 18.453125 25.171875 17.867188 24.441406 17.863281 L 20.195312 17.863281 C 19.464844 17.867188 18.875 18.453125 18.871094 19.179688 L 18.871094 23.394531 C 18.875 24.117188 19.464844 24.707031 20.195312 24.707031 L 24.441406 24.707031 C 25.171875 24.707031 25.765625 24.117188 25.765625 23.394531 Z M 23.113281 11.277344 L 23.113281 8.121094 C 23.113281 7.683594 22.757812 7.328125 22.320312 7.328125 C 21.878906 7.328125 21.523438 7.683594 21.523438 8.121094 L 21.523438 11.277344 C 21.523438 11.714844 21.878906 12.070312 22.320312 12.070312 C 22.757812 12.070312 23.113281 11.714844 23.113281 11.277344 Z M 22.320312 30.496094 C 21.878906 30.496094 21.523438 30.847656 21.523438 31.285156 L 21.523438 34.445312 C 21.523438 34.878906 21.878906 35.234375 22.320312 35.234375 C 22.757812 35.234375 23.113281 34.878906 23.113281 34.445312 L 23.113281 31.289062 C 23.113281 30.851562 22.757812 30.5 22.320312 30.5 Z M 8.269531 21.28125 C 8.269531 21.71875 8.625 22.074219 9.066406 22.074219 L 12.242188 22.074219 C 12.683594 22.074219 13.039062 21.71875 13.039062 21.28125 C 13.039062 20.84375 12.683594 20.492188 12.242188 20.492188 L 9.058594 20.492188 C 8.847656 20.492188 8.644531 20.574219 8.496094 20.722656 C 8.347656 20.871094 8.261719 21.074219 8.265625 21.285156 Z M 31.605469 21.28125 C 31.605469 21.71875 31.960938 22.074219 32.402344 22.074219 L 35.585938 22.074219 C 36.023438 22.074219 36.378906 21.71875 36.378906 21.28125 C 36.378906 20.84375 36.023438 20.492188 35.585938 20.492188 L 32.398438 20.492188 C 32.1875 20.492188 31.984375 20.574219 31.832031 20.722656 C 31.683594 20.871094 31.601562 21.074219 31.601562 21.285156 Z M 31.605469 21.28125 "/>
</g>
</svg>
