<?xml version="1.0" encoding="UTF-8"?>
<svg xmlns="http://www.w3.org/2000/svg" xmlns:xlink="http://www.w3.org/1999/xlink" width="50px" height="50px" viewBox="0 0 50 50" version="1.1">
<g id="surface1">
<path style=" stroke:none;fill-rule:nonzero;fill:rgb(0%,0%,0%);fill-opacity:1;" d="M 49.53125 32.65625 C 49.375 31.875 48.4375 31.40625 47.65625 31.5625 C 46.5625 31.875 45.78125 31.5625 45.625 31.25 C 45.46875 30.9375 45.625 30.15625 46.40625 29.21875 C 47.03125 28.59375 47.03125 27.65625 46.40625 27.03125 C 44.84375 25.46875 42.96875 24.375 40.78125 23.75 C 40 23.59375 39.0625 24.0625 38.90625 24.84375 C 38.59375 25.9375 37.96875 26.40625 37.5 26.40625 C 37.03125 26.40625 36.5625 25.78125 36.09375 24.84375 C 35.78125 24.0625 35 23.59375 34.21875 23.75 C 32.03125 24.375 30.15625 25.46875 28.59375 27.03125 C 27.96875 27.65625 27.96875 28.59375 28.59375 29.21875 C 29.375 30 29.53125 30.78125 29.375 31.25 C 29.21875 31.5625 28.4375 31.875 27.34375 31.5625 C 26.5625 31.40625 25.625 31.875 25.46875 32.65625 C 25.15625 33.75 25 34.84375 25 35.9375 C 25 37.03125 25.15625 38.125 25.46875 39.21875 C 25.625 40 26.5625 40.46875 27.34375 40.3125 C 28.4375 40 29.21875 40.3125 29.375 40.625 C 29.53125 40.9375 29.375 41.71875 28.59375 42.65625 C 27.96875 43.28125 27.96875 44.21875 28.59375 44.84375 C 30.15625 46.40625 32.03125 47.5 34.21875 48.125 C 34.375 48.125 34.53125 48.125 34.6875 48.125 C 35.3125 48.125 35.9375 47.65625 36.25 47.03125 C 36.5625 45.9375 37.1875 45.46875 37.65625 45.46875 C 38.125 45.46875 38.59375 46.09375 39.0625 47.03125 C 39.375 47.8125 40.15625 48.28125 40.9375 48.125 C 43.125 47.5 45 46.40625 46.5625 44.84375 C 47.1875 44.21875 47.1875 43.28125 46.5625 42.65625 C 45.78125 41.875 45.625 41.09375 45.78125 40.625 C 45.9375 40.3125 46.71875 40 47.8125 40.3125 C 48.59375 40.46875 49.53125 40 49.6875 39.21875 C 50 38.125 50.15625 37.03125 50.15625 35.9375 C 50.15625 34.84375 49.84375 33.75 49.53125 32.65625 Z M 37.5 42.1875 C 34.0625 42.1875 31.25 39.375 31.25 35.9375 C 31.25 32.5 34.0625 29.6875 37.5 29.6875 C 40.9375 29.6875 43.75 32.5 43.75 35.9375 C 43.75 39.375 40.9375 42.1875 37.5 42.1875 Z M 37.5 42.1875 "/>
<path style=" stroke:none;fill-rule:nonzero;fill:rgb(0%,0%,0%);fill-opacity:1;" d="M 21.875 35.9375 C 21.875 34.0625 22.1875 32.34375 22.8125 30.78125 C 22.8125 30.625 22.8125 30.625 22.8125 30.46875 C 22.8125 30.46875 22.96875 30.3125 22.96875 30.3125 C 23.75 28.4375 24.6875 26.875 25.9375 25.46875 C 26.09375 24.84375 26.25 24.375 26.40625 23.75 C 26.40625 23.28125 26.40625 22.8125 26.09375 22.5 C 25.78125 22.1875 25.3125 21.875 24.84375 21.875 C 23.125 21.875 21.5625 21.25 20.3125 20.3125 L 29.6875 20.3125 C 30.625 20.3125 31.25 19.6875 31.25 18.75 C 31.25 17.8125 30.625 17.1875 29.6875 17.1875 L 29.375 17.1875 L 29.375 16.875 C 29.375 14.0625 28.4375 11.5625 26.875 9.375 L 25.78125 13.28125 C 25.625 13.90625 25 14.375 24.21875 14.375 C 24.0625 14.375 23.90625 14.375 23.75 14.375 C 22.96875 14.0625 22.5 13.28125 22.65625 12.5 L 24.53125 6.09375 C 24.53125 5.625 24.21875 5.15625 23.75 4.84375 C 19.6875 2.8125 14.84375 2.8125 10.78125 4.84375 C 10.15625 4.84375 10 5.46875 9.84375 5.9375 L 11.71875 12.34375 C 12.03125 13.125 11.40625 14.0625 10.625 14.21875 C 10.46875 14.21875 10.3125 14.21875 10.15625 14.21875 C 9.53125 14.21875 8.90625 13.75 8.59375 13.125 L 7.65625 9.375 C 6.09375 11.5625 5.15625 14.0625 5.15625 16.875 L 5.15625 17.1875 L 4.6875 17.1875 C 3.75 17.1875 3.125 17.8125 3.125 18.75 C 3.125 19.6875 3.75 20.3125 4.6875 20.3125 L 7.8125 20.3125 L 7.8125 21.875 C 7.8125 25.3125 9.21875 28.4375 11.5625 30.46875 C 11.25 32.65625 9.84375 34.53125 7.65625 35.15625 C 3.75 36.25 0.78125 39.6875 -0.15625 44.0625 C -0.3125 44.84375 -0.15625 45.46875 0.3125 46.09375 C 0.9375 46.5625 1.5625 46.875 2.34375 46.875 L 26.40625 46.875 C 23.59375 44.0625 21.875 40.15625 21.875 35.9375 Z M 21.875 35.9375 "/>
</g>
</svg>
