<?xml version="1.0" encoding="UTF-8"?>
<svg xmlns="http://www.w3.org/2000/svg" xmlns:xlink="http://www.w3.org/1999/xlink" width="120px" height="120px" viewBox="0 0 120 120" version="1.1">
<g id="surface1">
<path style=" stroke:none;fill-rule:nonzero;fill:rgb(0%,0%,0%);fill-opacity:1;" d="M 25.355469 28.808594 C 24.082031 28.8125 23.050781 29.851562 23.054688 31.128906 L 23.054688 35.746094 L 18.4375 35.746094 C 18.355469 35.742188 18.277344 35.742188 18.195312 35.746094 C 17.582031 35.808594 17.015625 36.121094 16.628906 36.601562 L 7.390625 48.160156 C 7.0625 48.566406 6.878906 49.074219 6.875 49.59375 L 6.875 58.835938 C 6.867188 60.109375 7.902344 61.148438 9.179688 61.152344 C 9.179688 61.152344 18.128906 61.179688 26.890625 61.289062 C 28.246094 63.320312 29.808594 65.316406 31.632812 66.230469 C 31.855469 66.34375 32.058594 66.421875 32.28125 66.523438 C 32.28125 72.257812 32.28125 77.988281 32.28125 83.726562 L 30.214844 87.835938 L 30.21875 87.835938 C 29.59375 89.207031 30.261719 91.179688 32.28125 91.179688 C 36.132812 91.179688 39.988281 91.167969 43.824219 91.191406 C 44.890625 91.195312 45.816406 90.472656 46.070312 89.4375 L 48.386719 80.195312 C 48.433594 80.011719 48.460938 79.824219 48.460938 79.632812 L 48.460938 69.871094 C 55.160156 70.351562 62.417969 70.398438 67.90625 70.386719 C 68.285156 71.046875 68.660156 71.710938 69.054688 72.351562 L 68.046875 73.359375 C 65.734375 75.539062 69.152344 78.941406 71.320312 76.617188 L 71.914062 76.023438 C 72.492188 76.601562 73.117188 77.152344 73.832031 77.625 L 73.144531 79.210938 C 71.914062 82.039062 76.164062 83.882812 77.390625 81.050781 L 78.105469 79.382812 C 79.007812 79.578125 79.898438 79.714844 80.789062 79.757812 L 80.789062 80.503906 C 80.789062 83.585938 85.40625 83.585938 85.40625 80.503906 L 85.40625 79.320312 C 86.523438 79.070312 87.644531 78.714844 88.785156 78.265625 L 89.921875 83.914062 L 87.960938 87.835938 C 87.335938 89.203125 88.007812 91.179688 90.023438 91.179688 C 93.878906 91.179688 97.714844 91.167969 101.550781 91.191406 C 102.835938 91.207031 103.890625 90.164062 103.886719 88.871094 C 103.886719 75.011719 103.886719 61.152344 103.886719 47.289062 C 103.886719 45.636719 103.445312 44.082031 102.671875 42.671875 L 103.886719 42.671875 C 106.535156 42.6875 107.199219 43.648438 107.824219 45.125 C 108.449219 46.605469 108.507812 48.574219 108.507812 49.609375 L 108.507812 66.027344 C 108.507812 69.109375 113.125 69.109375 113.125 66.027344 L 113.125 49.609375 C 113.125 48.574219 113.179688 45.945312 112.070312 43.320312 C 110.960938 40.695312 108.148438 38.066406 103.886719 38.054688 L 98.039062 38.054688 C 95.804688 36.726562 93.085938 35.882812 90.128906 35.746094 C 86.386719 35.574219 84.035156 36.203125 81.515625 36.789062 C 78.996094 37.378906 76.113281 37.980469 70.367188 38.054688 C 64.617188 38.125 61.742188 37.585938 59.269531 37.007812 C 56.792969 36.433594 54.5 35.746094 50.761719 35.746094 L 36.78125 35.746094 C 36.554688 33.886719 36.035156 32.449219 35.449219 31.417969 C 34.679688 30.042969 33.613281 29.238281 33.613281 29.238281 C 33.222656 28.960938 32.757812 28.8125 32.28125 28.808594 Z M 99.265625 47.335938 C 97.582031 47.398438 95.585938 47.597656 93.625 48.296875 C 92.140625 48.828125 90.648438 49.667969 89.515625 51.0625 C 88.382812 52.453125 87.726562 54.367188 87.726562 56.535156 C 87.726562 58.070312 88.15625 59.484375 89.085938 60.453125 C 90.015625 61.421875 91.195312 61.742188 92.054688 61.851562 C 92.550781 61.914062 92.75 61.886719 93.078125 61.886719 C 93.425781 64.003906 93.726562 66.1875 95.15625 67.253906 C 96.429688 68.199219 97.828125 68.539062 99.265625 68.671875 C 99.265625 74.636719 99.265625 80.601562 99.265625 86.570312 C 97.429688 86.566406 95.59375 86.566406 93.757812 86.5625 L 94.402344 85.277344 C 94.632812 84.820312 94.695312 84.292969 94.59375 83.792969 L 92.425781 72.910156 C 92.480469 71.996094 91.992188 71.136719 91.183594 70.714844 C 88.371094 69.089844 87.460938 67.519531 86.988281 65.789062 C 86.515625 64.0625 86.652344 62.066406 86.648438 59.957031 C 86.664062 58.65625 85.597656 57.601562 84.296875 57.625 C 83.019531 57.652344 82.003906 58.699219 82.027344 59.976562 C 82.027344 61.085938 81.960938 62.492188 82.0625 64.042969 C 77.246094 65.257812 72.097656 65.820312 66.925781 65.964844 L 66.925781 64.917969 C 66.925781 59.644531 62.757812 55.222656 57.546875 55.222656 C 56.914062 55.222656 56.289062 55.351562 55.667969 55.476562 C 56.164062 53.632812 53.777344 52.003906 51.355469 52 C 47.683594 52 44.601562 55.894531 44.601562 58.917969 C 44.601562 62.160156 46.566406 64.273438 48.726562 65.273438 C 47.949219 65.199219 47.09375 65.160156 46.34375 65.089844 C 44.714844 64.941406 43.855469 66.164062 43.847656 67.390625 C 43.828125 71.363281 43.835938 75.378906 43.835938 79.363281 L 42.03125 86.570312 C 40.027344 86.566406 38.023438 86.566406 36.019531 86.566406 L 36.660156 85.277344 C 36.820312 84.957031 36.898438 84.597656 36.898438 84.238281 C 36.898438 78.839844 36.898438 73.457031 36.898438 68.058594 C 39.492188 68.195312 40.320312 64.191406 37.460938 63.539062 C 34.914062 62.90625 33.125 61.828125 31.367188 60.125 C 32.175781 59.777344 32.582031 59.367188 33.507812 58.789062 C 36.167969 57.121094 39.21875 54.101562 39.21875 49.613281 C 39.230469 48.308594 38.164062 47.25 36.863281 47.273438 C 35.59375 47.304688 34.585938 48.339844 34.597656 49.613281 C 34.597656 52.050781 33.023438 53.65625 31.066406 54.882812 C 29.628906 55.847656 28.464844 56.308594 27.128906 56.664062 C 19.476562 56.570312 13.355469 56.554688 11.496094 56.550781 L 11.496094 50.414062 L 19.539062 40.371094 L 23.054688 40.371094 L 23.054688 42.675781 C 22.796875 45.992188 27.917969 45.992188 27.660156 42.675781 L 27.660156 33.429688 L 31.257812 33.429688 C 31.328125 33.527344 31.28125 33.429688 31.429688 33.6875 C 31.808594 34.367188 32.28125 35.585938 32.28125 37.710938 C 32.28125 39.792969 31.789062 40.304688 31.695312 40.390625 C 28.964844 40.875 29.25 44.882812 32.023438 44.976562 C 32.023438 44.976562 33.726562 44.871094 34.921875 43.714844 C 35.699219 42.964844 36.269531 41.835938 36.597656 40.371094 L 50.757812 40.371094 C 50.964844 42.414062 51.507812 44.324219 52.617188 45.960938 C 54.128906 48.179688 56.820312 49.613281 60 49.613281 C 62.355469 49.613281 65.308594 49.601562 67.757812 49.597656 C 67.757812 51.511719 69.347656 52.675781 70.84375 53.179688 C 72.882812 53.992188 74.957031 53.929688 77.082031 53.929688 C 82.546875 53.929688 87.039062 49.433594 87.039062 43.972656 L 87.039062 40.429688 C 87.886719 40.351562 88.785156 40.304688 89.917969 40.359375 C 95.664062 40.625 99.265625 44.273438 99.265625 47.296875 Z M 55.523438 40.898438 C 56.382812 41.085938 57.210938 41.273438 58.226562 41.511719 C 60.882812 42.128906 64.351562 42.746094 70.417969 42.671875 C 76.382812 42.59375 79.820312 41.90625 82.417969 41.304688 L 82.417969 43.964844 C 82.417969 46.929688 80.050781 49.304688 77.082031 49.304688 C 74.992188 49.304688 73.273438 49.164062 72.550781 48.878906 C 71.691406 48.6875 71.765625 47.996094 71.765625 47.289062 C 71.769531 46.011719 70.742188 44.976562 69.460938 44.972656 C 66.921875 44.972656 62.855469 45.007812 60 45.007812 C 58.007812 45.007812 57.164062 44.4375 56.4375 43.367188 C 56.03125 42.773438 55.726562 41.917969 55.523438 40.898438 Z M 99.265625 51.992188 L 99.265625 63.992188 C 98.617188 63.878906 98.148438 63.722656 97.898438 63.539062 C 97.429688 63.1875 96.949219 62.519531 96.949219 59.992188 C 96.949219 59.078125 96.0625 57.882812 95.398438 57.585938 C 94.730469 57.289062 94.335938 57.3125 94.011719 57.300781 C 93.617188 57.289062 92.410156 57.261719 92.410156 57.261719 C 92.410156 57.261719 92.34375 57.300781 92.34375 56.53125 C 92.34375 55.234375 92.640625 54.53125 93.089844 53.976562 C 93.542969 53.417969 94.234375 52.976562 95.171875 52.644531 C 96.367188 52.214844 97.839844 52.070312 99.269531 51.992188 Z M 51.335938 56.617188 C 52.273438 56.617188 53.128906 57.265625 53.386719 58.335938 C 53.699219 59.613281 55.007812 60.371094 56.269531 60.007812 C 56.679688 59.890625 57.117188 59.839844 57.546875 59.839844 C 60.152344 59.839844 62.304688 62.035156 62.304688 64.917969 L 62.304688 66.007812 C 59.074219 65.972656 55.964844 65.804688 52.910156 65.589844 C 52.910156 64.59375 52.910156 63.472656 52.910156 63.472656 C 52.902344 62.351562 52.101562 61.398438 51 61.203125 C 50.015625 61.023438 49.226562 60.105469 49.226562 58.917969 C 49.226562 57.277344 50.289062 56.617188 51.335938 56.617188 Z M 83.179688 68.707031 C 84.003906 70.507812 85.359375 72.285156 87.460938 73.796875 C 84.132812 75.210938 81.554688 75.5625 78.550781 74.757812 C 76.789062 74.285156 75.683594 73.46875 74.578125 72.167969 C 74.144531 71.65625 73.71875 71.007812 73.292969 70.351562 C 75.976562 70.226562 79.492188 69.84375 83.179688 68.707031 Z M 83.179688 68.707031 "/>
</g>
</svg>
