<?xml version="1.0" encoding="UTF-8"?>
<svg xmlns="http://www.w3.org/2000/svg" xmlns:xlink="http://www.w3.org/1999/xlink" width="50px" height="50px" viewBox="0 0 50 50" version="1.1">
<g id="surface1">
<path style=" stroke:none;fill-rule:nonzero;fill:rgb(0%,0%,0%);fill-opacity:1;" d="M 46.875 29.6875 L 40.625 29.6875 L 40.625 23.4375 L 37.5 23.4375 L 37.5 37.5 L 12.5 37.5 L 12.5 12.5 L 26.5625 12.5 L 26.5625 9.375 L 20.3125 9.375 L 20.3125 3.125 L 17.1875 3.125 L 17.1875 9.375 L 12.5 9.375 C 10.773438 9.375 9.375 10.773438 9.375 12.5 L 9.375 17.1875 L 3.125 17.1875 L 3.125 20.3125 L 9.375 20.3125 L 9.375 29.6875 L 3.125 29.6875 L 3.125 32.8125 L 9.375 32.8125 L 9.375 37.5 C 9.378906 39.226562 10.773438 40.621094 12.5 40.625 L 17.1875 40.625 L 17.1875 46.875 L 20.3125 46.875 L 20.3125 40.625 L 29.6875 40.625 L 29.6875 46.875 L 32.8125 46.875 L 32.8125 40.625 L 37.5 40.625 C 39.226562 40.621094 40.621094 39.226562 40.625 37.5 L 40.625 32.8125 L 46.875 32.8125 Z M 46.875 29.6875 "/>
<path style=" stroke:none;fill-rule:nonzero;fill:rgb(0%,0%,0%);fill-opacity:1;" d="M 32.8125 32.8125 L 17.1875 32.8125 L 17.1875 17.1875 L 32.8125 17.1875 Z M 20.3125 29.6875 L 29.6875 29.6875 L 29.6875 20.3125 L 20.3125 20.3125 Z M 20.3125 29.6875 "/>
<path style=" stroke:none;fill-rule:nonzero;fill:rgb(0%,0%,0%);fill-opacity:1;" d="M 48.4375 20.3125 L 45.3125 20.3125 C 45.300781 11.6875 38.3125 4.699219 29.6875 4.6875 L 29.6875 1.5625 C 40.039062 1.574219 48.425781 9.960938 48.4375 20.3125 Z M 48.4375 20.3125 "/>
<path style=" stroke:none;fill-rule:nonzero;fill:rgb(0%,0%,0%);fill-opacity:1;" d="M 40.625 20.3125 L 37.5 20.3125 C 37.496094 16 34 12.503906 29.6875 12.5 L 29.6875 9.375 C 35.726562 9.382812 40.617188 14.273438 40.625 20.3125 Z M 40.625 20.3125 "/>
</g>
</svg>
