<?xml version="1.0" encoding="UTF-8"?>
<svg xmlns="http://www.w3.org/2000/svg" xmlns:xlink="http://www.w3.org/1999/xlink" width="80px" height="80px" viewBox="0 0 80 80" version="1.1">
<g id="surface1">
<path style=" stroke:none;fill-rule:nonzero;fill:rgb(0%,0%,0%);fill-opacity:1;" d="M 53.683594 15.980469 C 46.125 8.421875 33.875 8.421875 26.316406 15.980469 C 19.546875 22.753906 18.746094 33.460938 24.4375 41.160156 L 32.8125 52.5 L 47.1875 52.5 L 55.5625 41.160156 C 61.253906 33.457031 60.453125 22.753906 53.683594 15.980469 Z M 38.4375 46.671875 C 33.214844 43.734375 29.808594 38.855469 29.179688 33.484375 L 38.4375 38.832031 Z M 38.4375 35.222656 L 29.179688 29.875 C 29.378906 28.160156 29.859375 26.488281 30.59375 24.925781 L 38.4375 29.457031 Z M 38.4375 25.847656 L 32.179688 22.234375 C 33.835938 19.949219 35.96875 18.054688 38.4375 16.6875 Z M 41.5625 16.6875 C 45.421875 18.855469 48.292969 22.082031 49.78125 25.789062 L 41.5625 30.535156 Z M 41.5625 46.671875 L 41.5625 34.144531 L 50.671875 28.882812 C 50.84375 29.804688 50.933594 30.742188 50.9375 31.679688 C 50.9375 37.746094 47.367188 43.40625 41.5625 46.671875 Z M 41.5625 46.671875 "/>
<path style=" stroke:none;fill-rule:nonzero;fill:rgb(0%,0%,0%);fill-opacity:1;" d="M 30.625 63.4375 L 33.75 63.4375 C 33.75 66.890625 36.546875 69.6875 40 69.6875 C 43.453125 69.6875 46.25 66.890625 46.25 63.4375 L 49.375 63.4375 L 49.375 55.625 L 30.625 55.625 Z M 30.625 63.4375 "/>
</g>
</svg>
