<?xml version="1.0" encoding="UTF-8"?>
<svg xmlns="http://www.w3.org/2000/svg" xmlns:xlink="http://www.w3.org/1999/xlink" width="80px" height="80px" viewBox="0 0 80 80" version="1.1">
<g id="surface1">
<path style=" stroke:none;fill-rule:nonzero;fill:rgb(0%,0%,0%);fill-opacity:1;" d="M 9.277344 71.347656 C 8.75 71.15625 7.929688 70.601562 7.378906 70.050781 C 5.597656 68.269531 5.714844 70.136719 5.714844 43.488281 C 5.714844 20.308594 5.722656 19.921875 6.140625 18.804688 C 6.425781 18.046875 6.882812 17.375 7.511719 16.796875 C 9.296875 15.152344 8.574219 15.234375 21.792969 15.167969 L 33.589844 15.105469 L 29.003906 19.714844 L 19.890625 19.714844 C 11.667969 19.714844 10.75 19.773438 10.492188 20.058594 C 10.253906 20.34375 10.203125 24.21875 10.203125 43.421875 C 10.203125 65.761719 10.214844 66.449219 10.601562 66.878906 L 11 67.316406 L 33.890625 67.316406 C 54.265625 67.316406 56.828125 67.261719 57.242188 66.992188 C 57.695312 66.671875 57.707031 66.582031 57.707031 62.132812 L 57.707031 57.601562 L 62.316406 53.015625 L 62.253906 60.320312 C 62.195312 67.449219 62.183594 67.652344 61.722656 68.511719 C 60.941406 69.976562 60.066406 70.8125 58.832031 71.273438 C 57.703125 71.695312 57.390625 71.703125 33.949219 71.683594 C 12.933594 71.683594 10.097656 71.628906 9.277344 71.34375 Z M 39.121094 54.585938 L 39.121094 47.488281 L 41.210938 47.488281 L 41.210938 61.683594 L 39.121094 61.683594 Z M 13.023438 54.585938 L 13.023438 47.679688 L 17.355469 47.75 C 21.246094 47.8125 21.757812 47.855469 22.382812 48.234375 C 25.03125 49.832031 24.386719 54.15625 21.394531 54.867188 C 20.808594 55.003906 20.332031 55.167969 20.332031 55.226562 C 20.335938 55.285156 20.660156 55.539062 21.050781 55.796875 C 21.625 56.167969 23.6875 59.003906 25.003906 61.234375 C 25.121094 61.425781 24.878906 61.496094 24.042969 61.496094 L 22.925781 61.496094 L 21.160156 58.839844 C 20.1875 57.378906 19.132812 55.996094 18.8125 55.769531 C 18.347656 55.4375 17.890625 55.351562 16.515625 55.34375 L 14.796875 55.34375 L 14.742188 58.425781 L 14.683594 61.503906 L 13.023438 61.503906 Z M 20.882812 53.421875 C 22.28125 52.757812 22.625 51.105469 21.601562 49.957031 L 20.992188 49.277344 L 17.84375 49.207031 L 14.695312 49.140625 L 14.695312 53.761719 L 17.429688 53.761719 C 19.527344 53.761719 20.332031 53.683594 20.882812 53.417969 Z M 27.222656 54.601562 L 27.222656 47.710938 L 36.410156 47.710938 L 36.410156 49.171875 L 28.890625 49.171875 L 28.890625 53.554688 L 35.363281 53.554688 L 35.363281 55.226562 L 28.890625 55.226562 L 28.890625 61.492188 L 27.222656 61.492188 Z M 44.34375 54.605469 L 44.34375 47.675781 L 48.152344 47.746094 C 51.882812 47.816406 51.984375 47.824219 52.949219 48.394531 C 54.90625 49.542969 55.71875 51.371094 55.707031 54.601562 C 55.695312 57.945312 54.800781 59.765625 52.601562 60.925781 C 51.847656 61.328125 51.34375 61.386719 48.046875 61.453125 L 44.34375 61.535156 Z M 51.855469 59.390625 C 53.257812 58.613281 53.808594 57.378906 53.914062 54.773438 C 53.988281 52.875 53.953125 52.632812 53.429688 51.5625 C 53.042969 50.777344 52.585938 50.222656 52.011719 49.839844 C 51.203125 49.308594 51.027344 49.273438 48.636719 49.273438 L 46.117188 49.273438 L 46.0625 54.386719 C 46.03125 57.195312 46.054688 59.628906 46.117188 59.789062 C 46.207031 60.023438 46.699219 60.0625 48.582031 59.988281 C 50.582031 59.914062 51.070312 59.824219 51.855469 59.386719 Z M 62.664062 49.15625 C 62.148438 48.851562 61.671875 47.851562 61.671875 47.066406 C 61.671875 46.492188 61.980469 46.097656 63.847656 44.289062 C 68.136719 40.125 69.894531 36.15625 69.863281 30.695312 C 69.847656 27.667969 69.394531 25.710938 68.074219 22.96875 C 65.636719 17.90625 60.9375 14.261719 55.425781 13.144531 C 52.824219 12.617188 49.023438 12.800781 46.640625 13.574219 C 44.71875 14.191406 43.105469 14.960938 41.628906 15.960938 C 39.679688 17.28125 37.660156 16.425781 37.660156 14.277344 C 37.660156 13.292969 39 12.125 41.632812 10.8125 C 48.449219 7.417969 55.992188 7.480469 62.484375 10.980469 C 68.085938 14 72.058594 19.066406 73.722656 25.3125 C 74.183594 27.054688 74.265625 27.8125 74.285156 30.484375 C 74.304688 33.957031 74.066406 35.558594 73.105469 38.316406 C 71.75 42.210938 69.507812 45.425781 66.226562 48.175781 C 64.964844 49.230469 64.675781 49.378906 63.910156 49.375 C 63.425781 49.371094 62.863281 49.273438 62.664062 49.15625 Z M 58.171875 42.839844 C 57.597656 42.519531 57.136719 41.890625 57.074219 41.335938 C 56.953125 40.214844 57.125 39.890625 58.632812 38.398438 C 62.898438 34.171875 63.199219 28.238281 59.363281 24.039062 C 57.289062 21.765625 55 20.777344 51.832031 20.777344 C 49.675781 20.777344 48.179688 21.199219 46.289062 22.339844 C 44.945312 23.148438 44.414062 23.226562 43.5 22.753906 C 42.875 22.429688 42.253906 21.492188 42.253906 20.871094 C 42.253906 19.585938 43.753906 18.324219 46.664062 17.160156 C 54.296875 14.109375 63.199219 18.390625 65.792969 26.355469 C 66.488281 28.496094 66.652344 31.703125 66.183594 33.925781 C 65.695312 36.222656 64.21875 39.035156 62.566406 40.820312 C 60.644531 42.894531 59.347656 43.492188 58.171875 42.839844 Z M 50.292969 36.78125 C 47.382812 35.820312 45.769531 33.675781 45.78125 30.789062 C 45.789062 27.316406 48.363281 24.742188 51.828125 24.742188 C 53.601562 24.742188 54.8125 25.210938 56.109375 26.410156 C 59.351562 29.398438 58.316406 34.800781 54.164062 36.5625 C 53.125 37 51.277344 37.105469 50.292969 36.785156 Z M 50.292969 36.78125 "/>
</g>
</svg>
