<?xml version="1.0" encoding="UTF-8"?>
<svg xmlns="http://www.w3.org/2000/svg" xmlns:xlink="http://www.w3.org/1999/xlink" width="80px" height="80px" viewBox="0 0 80 80" version="1.1">
<g id="surface1">
<path style=" stroke:none;fill-rule:evenodd;fill:rgb(20%,20%,20%);fill-opacity:1;" d="M 64.953125 30.101562 C 63.644531 26.808594 61.632812 23.808594 58.925781 21.101562 L 64.597656 15.417969 C 68.8125 19.636719 71.714844 24.394531 73.308594 29.699219 C 74.28125 32.933594 74.769531 36.363281 74.773438 40 L 74.773438 40.007812 C 74.769531 45.324219 73.730469 50.207031 71.652344 54.65625 C 69.980469 58.253906 67.632812 61.566406 64.609375 64.601562 L 58.914062 58.910156 C 60.992188 56.832031 62.65625 54.582031 63.90625 52.164062 C 65.800781 48.503906 66.746094 44.449219 66.742188 40.007812 L 66.742188 40 C 66.75 36.449219 66.152344 33.152344 64.953125 30.101562 Z M 64.953125 30.101562 "/>
<path style=" stroke:none;fill-rule:evenodd;fill:rgb(20%,20%,20%);fill-opacity:1;" d="M 54.953125 25.15625 C 56.320312 26.535156 57.460938 28.007812 58.371094 29.582031 L 58.378906 29.582031 C 60.167969 32.675781 61.0625 36.140625 61.0625 39.980469 L 61.0625 40 C 61.0625 43.988281 60.101562 47.574219 58.179688 50.765625 L 58.171875 50.765625 C 57.285156 52.222656 56.195312 53.597656 54.90625 54.890625 L 54.90625 54.882812 L 54.898438 54.890625 L 49.207031 49.199219 C 49.574219 48.816406 49.917969 48.425781 50.234375 48.027344 L 50.234375 48.019531 C 52.082031 45.726562 53.007812 43.050781 53.015625 40 L 53.015625 39.980469 C 53.011719 36.398438 51.746094 33.339844 49.214844 30.808594 L 54.914062 25.101562 C 54.929688 25.117188 54.941406 25.136719 54.953125 25.15625 Z M 54.953125 25.15625 "/>
<path style=" stroke:none;fill-rule:evenodd;fill:rgb(20%,20%,20%);fill-opacity:1;" d="M 35.285156 35.246094 C 36.589844 33.941406 38.164062 33.289062 40.015625 33.289062 C 41.867188 33.289062 43.445312 33.941406 44.75 35.246094 L 44.761719 35.253906 C 46.058594 36.558594 46.707031 38.136719 46.707031 39.980469 L 46.707031 40 C 46.703125 41.84375 46.050781 43.417969 44.75 44.71875 C 44.746094 44.722656 44.742188 44.730469 44.742188 44.738281 C 43.433594 46.027344 41.859375 46.675781 40.011719 46.671875 C 38.167969 46.675781 36.59375 46.027344 35.292969 44.726562 L 35.285156 44.71875 C 33.988281 43.417969 33.335938 41.847656 33.332031 40.007812 C 33.332031 40 33.332031 39.992188 33.332031 39.980469 C 33.328125 38.140625 33.976562 36.566406 35.265625 35.261719 C 35.273438 35.257812 35.277344 35.253906 35.285156 35.246094 Z M 35.285156 35.246094 "/>
<path style=" stroke:none;fill-rule:evenodd;fill:rgb(20%,20%,20%);fill-opacity:1;" d="M 18.949219 39.980469 C 18.945312 39.726562 18.949219 39.46875 18.957031 39.21875 C 19.128906 33.730469 21.179688 29.023438 25.101562 25.101562 L 30.792969 30.792969 C 28.261719 33.328125 26.996094 36.390625 27.003906 39.980469 C 27.003906 39.992188 27.003906 40 27.003906 40.007812 C 27 40.410156 27.015625 40.804688 27.046875 41.191406 L 27.046875 41.199219 C 27.300781 44.277344 28.550781 46.941406 30.792969 49.191406 C 30.800781 49.195312 30.804688 49.203125 30.8125 49.210938 L 25.113281 54.898438 L 25.101562 54.890625 C 21.003906 50.785156 18.953125 45.824219 18.949219 40.007812 C 18.949219 40 18.949219 39.992188 18.949219 39.980469 Z M 18.949219 39.980469 "/>
<path style=" stroke:none;fill-rule:evenodd;fill:rgb(20%,20%,20%);fill-opacity:1;" d="M 5.535156 35.199219 C 6.492188 27.632812 9.785156 21.035156 15.410156 15.410156 L 21.101562 21.101562 C 16.53125 25.667969 13.957031 31.066406 13.382812 37.289062 C 13.304688 38.179688 13.265625 39.085938 13.265625 40.007812 C 13.265625 47.386719 15.871094 53.683594 21.085938 58.910156 L 21.09375 58.917969 L 15.402344 64.609375 L 15.390625 64.601562 C 8.617188 57.808594 5.230469 49.613281 5.238281 40.007812 C 5.238281 38.363281 5.335938 36.761719 5.535156 35.199219 Z M 5.535156 35.199219 "/>
</g>
</svg>
