<?xml version="1.0" encoding="UTF-8"?>
<svg xmlns="http://www.w3.org/2000/svg" xmlns:xlink="http://www.w3.org/1999/xlink" width="80px" height="80px" viewBox="0 0 80 80" version="1.1">
<g id="surface1">
<path style=" stroke:none;fill-rule:nonzero;fill:rgb(0%,0%,0%);fill-opacity:1;" d="M 11.667969 22.332031 C 11.445312 22.332031 11.238281 22.242188 11.082031 22.082031 C 9.910156 20.914062 9.25 19.328125 9.25 17.671875 C 9.25 16.015625 9.910156 14.425781 11.082031 13.257812 C 11.410156 12.933594 11.933594 12.933594 12.257812 13.257812 C 12.417969 13.414062 12.503906 13.628906 12.503906 13.851562 C 12.503906 14.070312 12.417969 14.285156 12.257812 14.441406 C 11.398438 15.296875 10.917969 16.460938 10.917969 17.675781 C 10.917969 18.886719 11.398438 20.050781 12.257812 20.910156 C 12.582031 21.234375 12.582031 21.757812 12.257812 22.082031 C 12.101562 22.242188 11.890625 22.332031 11.667969 22.332031 Z M 11.667969 22.332031 "/>
<path style=" stroke:none;fill-rule:nonzero;fill:rgb(0%,0%,0%);fill-opacity:1;" d="M 9.074219 24.910156 C 8.851562 24.910156 8.640625 24.824219 8.484375 24.667969 C 4.632812 20.800781 4.632812 14.550781 8.484375 10.683594 C 8.640625 10.527344 8.851562 10.4375 9.074219 10.4375 C 9.296875 10.4375 9.511719 10.527344 9.667969 10.683594 C 9.988281 11.007812 9.988281 11.535156 9.667969 11.859375 C 8.113281 13.402344 7.238281 15.5 7.238281 17.691406 C 7.238281 19.882812 8.113281 21.980469 9.667969 23.523438 C 9.824219 23.679688 9.914062 23.894531 9.914062 24.117188 C 9.914062 24.339844 9.824219 24.550781 9.667969 24.707031 C 9.503906 24.847656 9.289062 24.921875 9.074219 24.910156 Z M 9.074219 24.910156 "/>
<path style=" stroke:none;fill-rule:nonzero;fill:rgb(0%,0%,0%);fill-opacity:1;" d="M 6.300781 27.683594 C 6.078125 27.683594 5.867188 27.597656 5.707031 27.441406 C 0.324219 22.042969 0.324219 13.308594 5.707031 7.910156 C 5.863281 7.75 6.078125 7.660156 6.300781 7.660156 C 6.523438 7.660156 6.734375 7.75 6.890625 7.910156 C 7.214844 8.234375 7.214844 8.757812 6.890625 9.082031 C 2.15625 13.828125 2.15625 21.511719 6.890625 26.257812 C 7.050781 26.414062 7.136719 26.628906 7.136719 26.851562 C 7.136719 27.070312 7.050781 27.285156 6.890625 27.441406 C 6.734375 27.597656 6.523438 27.683594 6.300781 27.683594 Z M 6.300781 27.683594 "/>
<path style=" stroke:none;fill-rule:nonzero;fill:rgb(0%,0%,0%);fill-opacity:1;" d="M 68.332031 22.332031 C 68.109375 22.332031 67.898438 22.242188 67.742188 22.082031 C 67.417969 21.757812 67.417969 21.234375 67.742188 20.910156 C 68.601562 20.050781 69.082031 18.886719 69.082031 17.675781 C 69.082031 16.460938 68.601562 15.296875 67.742188 14.441406 C 67.582031 14.285156 67.496094 14.070312 67.496094 13.851562 C 67.496094 13.628906 67.582031 13.414062 67.742188 13.257812 C 68.066406 12.933594 68.589844 12.933594 68.917969 13.257812 C 70.089844 14.425781 70.75 16.015625 70.75 17.671875 C 70.75 19.328125 70.089844 20.914062 68.917969 22.082031 C 68.761719 22.242188 68.554688 22.332031 68.332031 22.332031 Z M 68.332031 22.332031 "/>
<path style=" stroke:none;fill-rule:nonzero;fill:rgb(0%,0%,0%);fill-opacity:1;" d="M 70.925781 24.910156 C 70.703125 24.910156 70.492188 24.824219 70.332031 24.667969 C 70.175781 24.511719 70.085938 24.296875 70.085938 24.074219 C 70.085938 23.851562 70.175781 23.640625 70.332031 23.484375 C 73.539062 20.273438 73.539062 15.070312 70.332031 11.859375 C 70.011719 11.535156 70.011719 11.007812 70.332031 10.683594 C 70.488281 10.527344 70.703125 10.4375 70.925781 10.4375 C 71.148438 10.4375 71.359375 10.527344 71.515625 10.683594 C 75.367188 14.550781 75.367188 20.800781 71.515625 24.667969 C 71.359375 24.824219 71.148438 24.910156 70.925781 24.910156 Z M 70.925781 24.910156 "/>
<path style=" stroke:none;fill-rule:nonzero;fill:rgb(0%,0%,0%);fill-opacity:1;" d="M 73.699219 27.683594 C 73.476562 27.683594 73.265625 27.597656 73.109375 27.441406 C 72.949219 27.285156 72.863281 27.070312 72.863281 26.851562 C 72.863281 26.628906 72.949219 26.414062 73.109375 26.257812 C 77.84375 21.511719 77.84375 13.828125 73.109375 9.082031 C 72.785156 8.757812 72.785156 8.234375 73.109375 7.910156 C 73.265625 7.75 73.476562 7.660156 73.699219 7.660156 C 73.921875 7.660156 74.136719 7.75 74.292969 7.910156 C 79.675781 13.308594 79.675781 22.042969 74.292969 27.441406 C 74.132812 27.597656 73.921875 27.683594 73.699219 27.683594 Z M 73.699219 27.683594 "/>
<path style=" stroke:none;fill-rule:nonzero;fill:rgb(0%,0%,0%);fill-opacity:1;" d="M 58.839844 30.832031 L 21.160156 30.832031 C 19.550781 30.832031 18.246094 29.53125 18.242188 27.925781 L 18.242188 7.441406 C 18.242188 5.832031 19.546875 4.523438 21.160156 4.523438 L 58.839844 4.523438 C 60.453125 4.523438 61.757812 5.832031 61.757812 7.441406 L 61.757812 27.910156 C 61.761719 28.683594 61.453125 29.425781 60.90625 29.976562 C 60.359375 30.523438 59.617188 30.832031 58.839844 30.832031 Z M 21.160156 6.191406 C 20.46875 6.191406 19.910156 6.75 19.910156 7.441406 L 19.910156 27.910156 C 19.90625 28.242188 20.035156 28.5625 20.273438 28.796875 C 20.507812 29.035156 20.824219 29.167969 21.160156 29.167969 L 58.839844 29.167969 C 59.527344 29.167969 60.085938 28.613281 60.089844 27.925781 L 60.089844 7.441406 C 60.089844 6.75 59.53125 6.191406 58.839844 6.191406 Z M 21.160156 6.191406 "/>
<path style=" stroke:none;fill-rule:nonzero;fill:rgb(0%,0%,0%);fill-opacity:1;" d="M 40 30.832031 C 39.539062 30.832031 39.167969 30.460938 39.167969 30 L 39.167969 5.359375 C 39.167969 4.898438 39.539062 4.523438 40 4.523438 C 40.460938 4.523438 40.832031 4.898438 40.832031 5.359375 L 40.832031 30 C 40.832031 30.460938 40.460938 30.832031 40 30.832031 Z M 40 30.832031 "/>
<path style=" stroke:none;fill-rule:nonzero;fill:rgb(0%,0%,0%);fill-opacity:1;" d="M 50.058594 30.832031 C 49.597656 30.832031 49.226562 30.460938 49.226562 30 L 49.226562 5.359375 C 49.226562 4.898438 49.597656 4.523438 50.058594 4.523438 C 50.519531 4.523438 50.890625 4.898438 50.890625 5.359375 L 50.890625 30 C 50.890625 30.460938 50.519531 30.832031 50.058594 30.832031 Z M 50.058594 30.832031 "/>
<path style=" stroke:none;fill-rule:nonzero;fill:rgb(0%,0%,0%);fill-opacity:1;" d="M 29.941406 30.832031 C 29.480469 30.832031 29.109375 30.460938 29.109375 30 L 29.109375 5.359375 C 29.109375 4.898438 29.480469 4.523438 29.941406 4.523438 C 30.402344 4.523438 30.773438 4.898438 30.773438 5.359375 L 30.773438 30 C 30.773438 30.460938 30.402344 30.832031 29.941406 30.832031 Z M 29.941406 30.832031 "/>
<path style=" stroke:none;fill-rule:nonzero;fill:rgb(0%,0%,0%);fill-opacity:1;" d="M 60.925781 13.910156 L 19.074219 13.910156 C 18.613281 13.910156 18.242188 13.535156 18.242188 13.074219 C 18.242188 12.613281 18.613281 12.242188 19.074219 12.242188 L 60.925781 12.242188 C 61.386719 12.242188 61.757812 12.613281 61.757812 13.074219 C 61.757812 13.535156 61.386719 13.910156 60.925781 13.910156 Z M 60.925781 13.910156 "/>
<path style=" stroke:none;fill-rule:nonzero;fill:rgb(0%,0%,0%);fill-opacity:1;" d="M 60.925781 23.101562 L 19.074219 23.101562 C 18.613281 23.101562 18.242188 22.726562 18.242188 22.265625 C 18.242188 21.804688 18.613281 21.433594 19.074219 21.433594 L 60.925781 21.433594 C 61.386719 21.433594 61.757812 21.804688 61.757812 22.265625 C 61.757812 22.726562 61.386719 23.101562 60.925781 23.101562 Z M 60.925781 23.101562 "/>
<path style=" stroke:none;fill-rule:nonzero;fill:rgb(0%,0%,0%);fill-opacity:1;" d="M 42.660156 75.476562 L 37.339844 75.476562 C 36.882812 75.476562 36.507812 75.101562 36.507812 74.640625 L 36.507812 45.589844 C 36.507812 45.132812 36.882812 44.757812 37.339844 44.757812 C 37.800781 44.757812 38.175781 45.132812 38.175781 45.589844 L 38.175781 73.808594 L 41.824219 73.808594 L 41.824219 45.589844 C 41.824219 45.132812 42.199219 44.757812 42.660156 44.757812 C 43.117188 44.757812 43.492188 45.132812 43.492188 45.589844 L 43.492188 74.640625 C 43.492188 75.101562 43.117188 75.476562 42.660156 75.476562 Z M 42.660156 75.476562 "/>
<path style=" stroke:none;fill-rule:nonzero;fill:rgb(0%,0%,0%);fill-opacity:1;" d="M 42.660156 38.015625 C 42.199219 38.015625 41.824219 37.644531 41.824219 37.183594 L 41.824219 30.832031 L 38.175781 30.832031 L 38.175781 37.199219 C 38.175781 37.660156 37.800781 38.035156 37.339844 38.035156 C 36.882812 38.035156 36.507812 37.660156 36.507812 37.199219 L 36.507812 30 C 36.507812 29.539062 36.882812 29.167969 37.339844 29.167969 L 42.660156 29.167969 C 43.117188 29.167969 43.492188 29.539062 43.492188 30 L 43.492188 37.199219 C 43.484375 37.652344 43.113281 38.015625 42.660156 38.015625 Z M 42.660156 38.015625 "/>
<path style=" stroke:none;fill-rule:nonzero;fill:rgb(0%,0%,0%);fill-opacity:1;" d="M 45.941406 46.425781 L 34.058594 46.425781 C 32.761719 46.425781 31.707031 45.371094 31.707031 44.074219 L 31.707031 38.699219 C 31.707031 37.402344 32.761719 36.351562 34.058594 36.351562 L 45.941406 36.351562 C 46.570312 36.339844 47.179688 36.582031 47.628906 37.023438 C 48.082031 37.464844 48.332031 38.070312 48.332031 38.699219 L 48.332031 44.074219 C 48.332031 44.707031 48.082031 45.308594 47.628906 45.75 C 47.179688 46.195312 46.570312 46.4375 45.941406 46.425781 Z M 34.058594 38.015625 C 33.679688 38.015625 33.375 38.324219 33.375 38.699219 L 33.375 44.074219 C 33.375 44.453125 33.679688 44.757812 34.058594 44.757812 L 45.941406 44.757812 C 46.320312 44.757812 46.625 44.453125 46.625 44.074219 L 46.625 38.699219 C 46.625 38.324219 46.320312 38.015625 45.941406 38.015625 Z M 34.058594 38.015625 "/>
<path style=" stroke:none;fill-rule:nonzero;fill:rgb(0%,0%,0%);fill-opacity:1;" d="M 34.058594 56.566406 L 30.832031 56.566406 C 30.375 56.566406 30 56.195312 30 55.734375 C 30 55.273438 30.375 54.898438 30.832031 54.898438 L 33.25 54.898438 L 33.25 45.589844 C 33.25 45.132812 33.625 44.757812 34.082031 44.757812 C 34.542969 44.757812 34.917969 45.132812 34.917969 45.589844 L 34.917969 55.734375 C 34.917969 55.957031 34.824219 56.175781 34.664062 56.332031 C 34.503906 56.488281 34.285156 56.574219 34.058594 56.566406 Z M 34.058594 56.566406 "/>
<path style=" stroke:none;fill-rule:nonzero;fill:rgb(0%,0%,0%);fill-opacity:1;" d="M 28.558594 58.824219 C 26.851562 58.816406 25.476562 57.425781 25.484375 55.722656 C 25.488281 54.015625 26.875 52.636719 28.582031 52.640625 C 30.285156 52.644531 31.667969 54.027344 31.667969 55.734375 C 31.667969 56.554688 31.339844 57.34375 30.753906 57.925781 C 30.171875 58.503906 29.382812 58.828125 28.558594 58.824219 Z M 28.558594 54.316406 C 27.980469 54.3125 27.457031 54.660156 27.234375 55.191406 C 27.011719 55.726562 27.132812 56.339844 27.542969 56.75 C 27.949219 57.15625 28.566406 57.277344 29.097656 57.054688 C 29.632812 56.832031 29.976562 56.3125 29.976562 55.734375 C 29.96875 54.953125 29.339844 54.320312 28.558594 54.316406 Z M 28.558594 54.316406 "/>
<path style=" stroke:none;fill-rule:nonzero;fill:rgb(0%,0%,0%);fill-opacity:1;" d="M 66.898438 75.476562 C 66.441406 75.476562 66.066406 75.101562 66.066406 74.640625 L 66.066406 48.542969 C 66.066406 48.082031 66.441406 47.707031 66.898438 47.707031 C 67.359375 47.707031 67.734375 48.082031 67.734375 48.542969 L 67.734375 74.640625 C 67.734375 75.101562 67.359375 75.476562 66.898438 75.476562 Z M 66.898438 75.476562 "/>
<path style=" stroke:none;fill-rule:nonzero;fill:rgb(0%,0%,0%);fill-opacity:1;" d="M 66.898438 69.566406 C 66.675781 69.566406 66.457031 69.476562 66.300781 69.316406 C 66.136719 69.148438 66.050781 68.917969 66.066406 68.683594 C 66.066406 68.5 66.382812 64.199219 69.285156 61.382812 C 72.183594 58.566406 76.5 58.375 76.667969 58.375 C 76.902344 58.367188 77.128906 58.457031 77.292969 58.625 C 77.457031 58.792969 77.539062 59.023438 77.523438 59.257812 C 77.523438 59.433594 77.207031 63.734375 74.308594 66.558594 C 71.410156 69.382812 67.089844 69.566406 66.910156 69.566406 Z M 75.734375 60.148438 C 73.773438 60.421875 71.9375 61.265625 70.449219 62.574219 C 69.097656 64.019531 68.203125 65.832031 67.875 67.785156 C 69.835938 67.519531 71.675781 66.675781 73.160156 65.367188 C 74.511719 63.917969 75.40625 62.105469 75.734375 60.148438 Z M 75.734375 60.148438 "/>
<path style=" stroke:none;fill-rule:nonzero;fill:rgb(0%,0%,0%);fill-opacity:1;" d="M 66.898438 58 C 66.675781 58 66.457031 57.910156 66.300781 57.75 C 66.136719 57.582031 66.050781 57.351562 66.066406 57.117188 C 66.25 55.027344 67.132812 53.058594 68.566406 51.523438 C 70.125 50.15625 72.09375 49.34375 74.167969 49.214844 C 74.402344 49.199219 74.632812 49.292969 74.792969 49.464844 C 74.957031 49.636719 75.039062 49.867188 75.023438 50.101562 C 74.84375 52.191406 73.964844 54.160156 72.523438 55.691406 C 70.949219 57.070312 68.957031 57.882812 66.867188 58 Z M 73.226562 51.015625 C 70.492188 51.359375 68.320312 53.472656 67.898438 56.191406 C 69.207031 55.976562 70.429688 55.398438 71.425781 54.523438 C 72.339844 53.546875 72.964844 52.332031 73.226562 51.015625 Z M 73.226562 51.015625 "/>
<path style=" stroke:none;fill-rule:nonzero;fill:rgb(0%,0%,0%);fill-opacity:1;" d="M 66.898438 69.566406 C 66.726562 69.566406 62.417969 69.382812 59.507812 66.558594 C 56.601562 63.734375 56.300781 59.433594 56.292969 59.257812 C 56.277344 59.023438 56.363281 58.792969 56.523438 58.625 C 56.6875 58.457031 56.914062 58.367188 57.148438 58.375 C 57.332031 58.375 61.632812 58.558594 64.542969 61.382812 C 67.449219 64.207031 67.75 68.5 67.765625 68.683594 C 67.777344 68.917969 67.691406 69.144531 67.535156 69.316406 C 67.367188 69.488281 67.136719 69.578125 66.898438 69.566406 Z M 58.066406 60.148438 C 58.386719 62.105469 59.28125 63.921875 60.632812 65.367188 C 62.121094 66.675781 63.960938 67.515625 65.925781 67.785156 C 65.59375 65.828125 64.691406 64.019531 63.332031 62.574219 C 61.851562 61.269531 60.019531 60.429688 58.066406 60.148438 Z M 58.066406 60.148438 "/>
<path style=" stroke:none;fill-rule:nonzero;fill:rgb(0%,0%,0%);fill-opacity:1;" d="M 66.898438 58 C 64.808594 57.882812 62.820312 57.070312 61.242188 55.691406 C 59.808594 54.160156 58.925781 52.191406 58.742188 50.101562 C 58.726562 49.867188 58.8125 49.636719 58.976562 49.464844 C 59.140625 49.300781 59.367188 49.207031 59.601562 49.214844 C 61.691406 49.328125 63.683594 50.140625 65.257812 51.523438 C 66.695312 53.054688 67.574219 55.023438 67.757812 57.117188 C 67.765625 57.351562 67.683594 57.578125 67.523438 57.75 C 67.359375 57.917969 67.132812 58.007812 66.898438 58 Z M 62.367188 54.5 C 63.367188 55.371094 64.589844 55.949219 65.898438 56.167969 C 65.472656 53.449219 63.300781 51.34375 60.574219 50.992188 C 60.832031 52.296875 61.453125 53.503906 62.367188 54.476562 Z M 62.367188 54.5 "/>
<path style=" stroke:none;fill-rule:nonzero;fill:rgb(0%,0%,0%);fill-opacity:1;" d="M 13.101562 75.476562 C 12.640625 75.476562 12.265625 75.101562 12.265625 74.640625 L 12.265625 48.542969 C 12.265625 48.082031 12.640625 47.707031 13.101562 47.707031 C 13.558594 47.707031 13.933594 48.082031 13.933594 48.542969 L 13.933594 74.640625 C 13.933594 75.101562 13.558594 75.476562 13.101562 75.476562 Z M 13.101562 75.476562 "/>
<path style=" stroke:none;fill-rule:nonzero;fill:rgb(0%,0%,0%);fill-opacity:1;" d="M 13.101562 69.566406 C 12.917969 69.566406 8.609375 69.382812 5.699219 66.558594 C 2.773438 63.734375 2.5 59.433594 2.5 59.257812 C 2.484375 59.023438 2.570312 58.792969 2.734375 58.625 C 2.898438 58.457031 3.125 58.367188 3.359375 58.375 C 3.542969 58.375 7.851562 58.558594 10.757812 61.382812 C 13.667969 64.207031 13.964844 68.5 13.976562 68.683594 C 13.988281 68.917969 13.90625 69.148438 13.742188 69.316406 C 13.574219 69.488281 13.339844 69.578125 13.101562 69.566406 Z M 4.265625 60.148438 C 4.59375 62.105469 5.488281 63.917969 6.839844 65.367188 C 8.324219 66.675781 10.164062 67.519531 12.125 67.785156 C 11.796875 65.832031 10.902344 64.019531 9.550781 62.574219 C 8.0625 61.265625 6.226562 60.421875 4.265625 60.148438 Z M 4.265625 60.148438 "/>
<path style=" stroke:none;fill-rule:nonzero;fill:rgb(0%,0%,0%);fill-opacity:1;" d="M 13.101562 58 C 11 57.886719 9 57.074219 7.417969 55.691406 C 5.980469 54.160156 5.097656 52.191406 4.917969 50.101562 C 4.902344 49.867188 4.988281 49.636719 5.148438 49.464844 C 5.3125 49.300781 5.539062 49.207031 5.773438 49.214844 C 7.867188 49.332031 9.859375 50.144531 11.433594 51.523438 C 12.867188 53.058594 13.75 55.027344 13.933594 57.117188 C 13.949219 57.351562 13.863281 57.582031 13.699219 57.75 C 13.542969 57.910156 13.324219 58 13.101562 58 Z M 6.773438 51.015625 C 7.039062 52.320312 7.664062 53.527344 8.574219 54.5 C 9.570312 55.375 10.792969 55.953125 12.101562 56.167969 C 11.84375 54.863281 11.222656 53.65625 10.308594 52.691406 C 9.3125 51.8125 8.085938 51.234375 6.773438 51.015625 Z M 6.773438 51.015625 "/>
<path style=" stroke:none;fill-rule:nonzero;fill:rgb(0%,0%,0%);fill-opacity:1;" d="M 13.101562 69.566406 C 12.875 69.566406 12.65625 69.476562 12.5 69.316406 C 12.339844 69.144531 12.257812 68.917969 12.265625 68.683594 C 12.265625 68.5 12.582031 64.199219 15.492188 61.382812 C 18.398438 58.566406 22.699219 58.375 22.882812 58.375 C 23.117188 58.359375 23.347656 58.449219 23.507812 58.625 C 23.671875 58.792969 23.757812 59.023438 23.742188 59.257812 C 23.742188 59.433594 23.433594 63.734375 20.523438 66.558594 C 17.617188 69.382812 13.332031 69.566406 13.132812 69.566406 Z M 21.933594 60.148438 C 19.980469 60.429688 18.148438 61.269531 16.667969 62.574219 C 15.316406 64.019531 14.417969 65.832031 14.089844 67.785156 C 16.054688 67.515625 17.898438 66.675781 19.382812 65.367188 C 20.730469 63.917969 21.617188 62.101562 21.933594 60.148438 Z M 21.933594 60.148438 "/>
<path style=" stroke:none;fill-rule:nonzero;fill:rgb(0%,0%,0%);fill-opacity:1;" d="M 13.101562 58 C 12.875 58 12.65625 57.910156 12.5 57.75 C 12.34375 57.578125 12.257812 57.351562 12.265625 57.117188 C 12.449219 55.023438 13.328125 53.054688 14.765625 51.523438 C 16.339844 50.140625 18.332031 49.328125 20.425781 49.214844 C 20.660156 49.207031 20.886719 49.300781 21.050781 49.464844 C 21.214844 49.636719 21.296875 49.867188 21.285156 50.101562 C 21.097656 52.191406 20.21875 54.160156 18.785156 55.691406 C 17.207031 57.070312 15.214844 57.882812 13.125 58 Z M 19.425781 51.015625 C 18.117188 51.230469 16.894531 51.808594 15.898438 52.683594 C 14.984375 53.648438 14.359375 54.855469 14.101562 56.160156 C 15.410156 55.941406 16.632812 55.363281 17.632812 54.492188 C 18.542969 53.523438 19.164062 52.320312 19.425781 51.015625 Z M 18.207031 55.089844 Z M 18.207031 55.089844 "/>
<path style=" stroke:none;fill-rule:nonzero;fill:rgb(0%,0%,0%);fill-opacity:1;" d="M 75.832031 75.476562 L 4.207031 75.476562 C 3.75 75.476562 3.375 75.101562 3.375 74.640625 C 3.375 74.179688 3.75 73.808594 4.207031 73.808594 L 75.832031 73.808594 C 76.292969 73.808594 76.667969 74.179688 76.667969 74.640625 C 76.667969 75.101562 76.292969 75.476562 75.832031 75.476562 Z M 75.832031 75.476562 "/>
</g>
</svg>
