<?xml version="1.0" encoding="UTF-8"?>
<svg xmlns="http://www.w3.org/2000/svg" xmlns:xlink="http://www.w3.org/1999/xlink" width="80px" height="80px" viewBox="0 0 80 80" version="1.1">
<g id="surface1">
<path style=" stroke:none;fill-rule:nonzero;fill:rgb(0%,0%,0%);fill-opacity:1;" d="M 71.65625 35.09375 C 70.9375 35.09375 70.21875 34.78125 69.71875 34.25 L 46.03125 10.65625 C 45.53125 10.125 45.25 9.4375 45.25 8.6875 C 45.25 7.96875 45.53125 7.28125 46.03125 6.75 L 50 2.8125 C 50.5 2.28125 51.21875 2 51.9375 2 C 52.65625 2 53.375 2.28125 53.875 2.8125 L 77.5 26.4375 C 78.03125 26.96875 78.3125 27.65625 78.3125 28.375 C 78.3125 29.125 78.03125 29.8125 77.5 30.3125 L 73.53125 34.28125 C 73.03125 34.78125 72.375 35.0625 71.65625 35.09375 Z M 51.9375 3.65625 C 51.65625 3.65625 51.375 3.78125 51.1875 3.96875 L 47.21875 7.9375 C 46.8125 8.375 46.8125 9.03125 47.21875 9.46875 L 70.84375 33.09375 C 71.25 33.53125 71.9375 33.53125 72.375 33.09375 L 76.34375 29.15625 C 76.5625 28.96875 76.65625 28.6875 76.65625 28.40625 C 76.65625 28.125 76.5625 27.84375 76.34375 27.625 L 52.71875 3.96875 C 52.5 3.78125 52.21875 3.65625 51.9375 3.65625 Z M 51.9375 3.65625 "/>
<path style=" stroke:none;fill-rule:nonzero;fill:rgb(0%,0%,0%);fill-opacity:1;" d="M 59.40625 32.3125 C 56.875 32.3125 54.46875 31.3125 52.6875 29.53125 L 50.78125 27.65625 C 47.09375 23.9375 47.09375 17.9375 50.78125 14.21875 C 50.9375 14.0625 51.15625 13.96875 51.375 13.96875 C 51.59375 13.96875 51.8125 14.0625 51.96875 14.21875 L 66.125 28.375 C 66.28125 28.53125 66.375 28.75 66.375 28.96875 C 66.375 29.1875 66.28125 29.40625 66.125 29.5625 C 64.34375 31.34375 61.9375 32.34375 59.40625 32.3125 Z M 51.40625 16 C 48.90625 19.125 49.125 23.625 51.96875 26.46875 L 53.84375 28.34375 C 56.6875 31.15625 61.1875 31.40625 64.3125 28.90625 Z M 51.40625 16 "/>
<path style=" stroke:none;fill-rule:nonzero;fill:rgb(0%,0%,0%);fill-opacity:1;" d="M 2.5 64.78125 C 2.28125 64.78125 2.0625 64.6875 1.90625 64.53125 C 1.75 64.375 1.65625 64.15625 1.65625 63.9375 C 1.65625 63.71875 1.75 63.5 1.90625 63.34375 L 6.21875 59.03125 C 5.96875 57.875 5.6875 54.875 7.21875 49.71875 C 7.625 48.40625 8 46.9375 8.40625 45.40625 C 9.78125 40 11.09375 34.90625 13.53125 33.53125 C 14.1875 33.15625 14.96875 33.09375 15.6875 33.34375 C 16.625 33.65625 17.34375 34.40625 17.6875 35.34375 C 19.0625 38.65625 18 45.25 16.78125 48.25 C 18.5 49.375 22.59375 52.8125 20.15625 59.03125 C 20 59.46875 19.5 59.6875 19.0625 59.53125 C 18.875 59.4375 18.6875 59.28125 18.625 59.09375 C 18.53125 58.875 18.53125 58.65625 18.59375 58.4375 C 21.03125 52.125 15.59375 49.46875 15.34375 49.34375 C 15.15625 49.25 15 49.0625 14.9375 48.84375 C 14.84375 48.625 14.875 48.375 15 48.15625 C 16.15625 45.96875 17.40625 38.9375 16.15625 35.9375 C 16.03125 35.46875 15.6875 35.09375 15.21875 34.875 C 14.9375 34.78125 14.65625 34.84375 14.40625 34.96875 C 12.5 36 11.125 41.4375 10 45.84375 C 9.59375 47.40625 9.21875 48.875 8.8125 50.21875 C 7 56.28125 7.9375 58.96875 7.9375 59 C 8.0625 59.3125 7.96875 59.65625 7.75 59.875 L 3.09375 64.53125 C 2.9375 64.6875 2.71875 64.78125 2.5 64.78125 Z M 2.5 64.78125 "/>
<path style=" stroke:none;fill-rule:nonzero;fill:rgb(0%,0%,0%);fill-opacity:1;" d="M 15.71875 49.40625 C 15.5 49.375 15.28125 49.3125 15.125 49.15625 C 14.8125 48.8125 14.8125 48.28125 15.125 47.96875 L 30.4375 32.65625 C 32 31.1875 34.4375 31.21875 35.9375 32.75 C 37.4375 34.25 37.5 36.6875 36.03125 38.21875 L 25.1875 49.0625 C 24.875 49.375 24.34375 49.375 24.03125 49.0625 C 23.84375 48.90625 23.78125 48.6875 23.78125 48.46875 C 23.78125 48.25 23.84375 48.03125 24.03125 47.875 L 34.84375 37.0625 C 35.46875 36.5 35.75 35.625 35.53125 34.8125 C 35.34375 33.96875 34.6875 33.34375 33.875 33.15625 C 33.0625 32.9375 32.1875 33.1875 31.625 33.8125 L 16.3125 49.15625 C 16.125 49.3125 15.9375 49.40625 15.71875 49.40625 Z M 15.71875 49.40625 "/>
<path style=" stroke:none;fill-rule:nonzero;fill:rgb(0%,0%,0%);fill-opacity:1;" d="M 29.03125 53.6875 C 28.8125 53.6875 28.59375 53.59375 28.4375 53.4375 C 28.125 53.125 28.125 52.59375 28.4375 52.28125 L 41.0625 39.65625 C 41.96875 38.75 41.96875 37.3125 41.0625 36.40625 C 40.1875 35.53125 38.71875 35.53125 37.84375 36.40625 L 25.21875 49.03125 C 24.90625 49.375 24.375 49.375 24.03125 49.03125 C 23.875 48.875 23.78125 48.6875 23.78125 48.4375 C 23.78125 48.21875 23.875 48 24.03125 47.84375 L 36.65625 35.21875 C 38.21875 33.6875 40.71875 33.6875 42.25 35.25 C 43.8125 36.78125 43.78125 39.28125 42.25 40.84375 L 29.625 53.4375 C 29.46875 53.59375 29.25 53.6875 29.03125 53.6875 Z M 29.03125 53.6875 "/>
<path style=" stroke:none;fill-rule:nonzero;fill:rgb(0%,0%,0%);fill-opacity:1;" d="M 33.4375 58.09375 C 33.09375 58.09375 32.78125 57.90625 32.65625 57.59375 C 32.53125 57.28125 32.59375 56.90625 32.84375 56.65625 L 44.15625 45.34375 C 44.59375 44.9375 44.84375 44.34375 44.84375 43.75 C 44.84375 43.15625 44.59375 42.5625 44.15625 42.125 C 43.25 41.28125 41.84375 41.28125 40.9375 42.125 L 29.625 53.4375 C 29.3125 53.75 28.78125 53.75 28.4375 53.4375 C 28.125 53.125 28.125 52.59375 28.4375 52.28125 L 39.75 40.96875 C 41.3125 39.40625 43.8125 39.40625 45.34375 40.96875 C 46.09375 41.6875 46.5 42.6875 46.5 43.75 C 46.5 44.8125 46.09375 45.8125 45.34375 46.53125 L 34.03125 57.84375 C 33.875 58 33.65625 58.09375 33.4375 58.09375 Z M 33.4375 58.09375 "/>
<path style=" stroke:none;fill-rule:nonzero;fill:rgb(0%,0%,0%);fill-opacity:1;" d="M 15.71875 78 C 15.5 78 15.3125 77.9375 15.15625 77.78125 C 14.96875 77.625 14.90625 77.40625 14.90625 77.1875 C 14.90625 76.9375 14.96875 76.75 15.15625 76.59375 L 19.84375 71.875 C 20 71.75 20.21875 71.65625 20.40625 71.65625 L 23.75 71.59375 C 24.96875 71.5625 26.15625 71.0625 27 70.1875 L 44.21875 52.9375 C 44.9375 52.21875 44.9375 51.03125 44.21875 50.3125 C 43.46875 49.59375 42.3125 49.59375 41.5625 50.3125 L 34.0625 57.84375 C 33.90625 58 33.71875 58.09375 33.46875 58.09375 C 33.25 58.09375 33.0625 58 32.90625 57.84375 C 32.5625 57.53125 32.5625 57 32.90625 56.6875 L 40.40625 49.125 C 41.78125 47.75 44 47.75 45.40625 49.125 C 46.78125 50.5 46.78125 52.75 45.40625 54.125 L 28.15625 71.34375 C 27 72.53125 25.40625 73.1875 23.75 73.21875 L 20.84375 73.34375 L 16.375 77.8125 C 16.1875 77.96875 15.96875 78.03125 15.71875 78 Z M 15.71875 78 "/>
<path style=" stroke:none;fill-rule:nonzero;fill:rgb(0%,0%,0%);fill-opacity:1;" d="M 33.34375 28.84375 C 32.875 28.84375 32.5 28.5 32.5 28.03125 C 32.5 25.5625 33.46875 23.21875 35.21875 21.46875 C 36.96875 19.75 39.3125 18.78125 41.78125 18.78125 C 42.21875 18.78125 42.59375 19.15625 42.59375 19.625 C 42.59375 20.0625 42.21875 20.4375 41.78125 20.4375 C 39.75 20.4375 37.8125 21.25 36.40625 22.65625 C 34.96875 24.09375 34.15625 26 34.15625 28.03125 C 34.15625 28.5 33.78125 28.84375 33.34375 28.84375 Z M 33.34375 28.84375 "/>
<path style=" stroke:none;fill-rule:nonzero;fill:rgb(0%,0%,0%);fill-opacity:1;" d="M 52.5 48 C 52.03125 48 51.65625 47.625 51.65625 47.15625 C 51.65625 46.6875 52.03125 46.3125 52.5 46.3125 C 56.6875 46.3125 60.0625 42.9375 60.0625 38.75 C 60.0625 38.3125 60.4375 37.9375 60.90625 37.9375 C 61.375 37.9375 61.75 38.3125 61.75 38.75 C 61.71875 43.84375 57.59375 48 52.5 48 Z M 52.5 48 "/>
<path style=" stroke:none;fill-rule:nonzero;fill:rgb(0%,0%,0%);fill-opacity:1;" d="M 24.5625 28.84375 C 24.09375 28.84375 23.71875 28.5 23.71875 28.03125 C 23.75 18.0625 31.8125 10 41.78125 10 C 42.21875 10 42.59375 10.375 42.59375 10.84375 C 42.59375 11.28125 42.21875 11.65625 41.78125 11.65625 C 32.75 11.6875 25.40625 19 25.40625 28.03125 C 25.40625 28.5 25.03125 28.84375 24.5625 28.84375 Z M 24.5625 28.84375 "/>
<path style=" stroke:none;fill-rule:nonzero;fill:rgb(0%,0%,0%);fill-opacity:1;" d="M 52.5 56.8125 C 52.03125 56.8125 51.65625 56.4375 51.65625 55.96875 C 51.65625 55.5 52.03125 55.125 52.5 55.125 C 61.53125 55.125 68.875 47.8125 68.875 38.75 C 68.875 38.3125 69.25 37.9375 69.71875 37.9375 C 70.1875 37.9375 70.5625 38.3125 70.5625 38.75 C 70.53125 48.71875 62.46875 56.78125 52.5 56.8125 Z M 52.5 56.8125 "/>
</g>
</svg>
