<?xml version="1.0" encoding="UTF-8"?>
<svg xmlns="http://www.w3.org/2000/svg" xmlns:xlink="http://www.w3.org/1999/xlink" width="80px" height="80px" viewBox="0 0 80 80" version="1.1">
<g id="surface1">
<path style=" stroke:none;fill-rule:nonzero;fill:rgb(0%,0%,0%);fill-opacity:1;" d="M 64.933594 56.835938 L 15.382812 56.835938 C 14.328125 56.835938 13.476562 55.984375 13.476562 54.933594 C 13.476562 54.847656 13.492188 46.179688 13.546875 45.394531 C 14.558594 31.316406 26 20.699219 40.15625 20.699219 C 54.230469 20.699219 65.925781 31.675781 66.785156 45.6875 C 66.828125 46.355469 66.835938 54.847656 66.835938 54.933594 C 66.835938 55.984375 65.984375 56.835938 64.933594 56.835938 Z M 17.289062 53.027344 L 63.027344 53.027344 C 63.019531 50.339844 63.003906 46.324219 62.984375 45.914062 C 62.25 33.914062 52.222656 24.511719 40.15625 24.511719 C 28.019531 24.511719 18.214844 33.605469 17.347656 45.671875 C 17.320312 46.128906 17.296875 50.285156 17.289062 53.027344 Z M 17.289062 53.027344 "/>
<path style=" stroke:none;fill-rule:nonzero;fill:rgb(0%,0%,0%);fill-opacity:1;" d="M 66.804688 72.722656 C 66.804688 73.773438 65.953125 74.628906 64.902344 74.628906 L 15.375 74.628906 C 14.324219 74.628906 13.472656 73.773438 13.472656 72.722656 L 13.472656 61.285156 C 13.472656 60.234375 14.324219 59.378906 15.375 59.378906 L 64.902344 59.378906 C 65.953125 59.378906 66.804688 60.234375 66.804688 61.285156 Z M 17.28125 70.816406 L 62.996094 70.816406 L 62.996094 63.191406 L 17.28125 63.191406 Z M 17.28125 70.816406 "/>
<path style=" stroke:none;fill-rule:nonzero;fill:rgb(0%,0%,0%);fill-opacity:1;" d="M 64.933594 33.117188 C 64.4375 33.117188 63.949219 32.921875 63.574219 32.542969 C 62.835938 31.792969 62.847656 30.585938 63.597656 29.847656 L 76.761719 16.917969 C 77.511719 16.179688 78.71875 16.191406 79.457031 16.945312 C 80.191406 17.695312 80.179688 18.902344 79.429688 19.636719 L 66.269531 32.570312 C 65.898438 32.933594 65.414062 33.117188 64.933594 33.117188 Z M 64.933594 33.117188 "/>
<path style=" stroke:none;fill-rule:nonzero;fill:rgb(0%,0%,0%);fill-opacity:1;" d="M 15.066406 33.117188 C 14.585938 33.117188 14.101562 32.933594 13.730469 32.570312 L 0.570312 19.636719 C -0.179688 18.902344 -0.191406 17.695312 0.542969 16.945312 C 1.28125 16.191406 2.488281 16.179688 3.238281 16.917969 L 16.398438 29.847656 C 17.152344 30.585938 17.164062 31.792969 16.425781 32.542969 C 16.050781 32.921875 15.558594 33.117188 15.066406 33.117188 Z M 15.066406 33.117188 "/>
<path style=" stroke:none;fill-rule:nonzero;fill:rgb(0%,0%,0%);fill-opacity:1;" d="M 40.773438 19.351562 C 39.722656 19.351562 38.871094 18.496094 38.871094 17.445312 L 38.871094 7.277344 C 38.871094 6.226562 39.722656 5.371094 40.773438 5.371094 C 41.824219 5.371094 42.679688 6.226562 42.679688 7.277344 L 42.679688 17.445312 C 42.679688 18.496094 41.824219 19.351562 40.773438 19.351562 Z M 40.773438 19.351562 "/>
<path style=" stroke:none;fill-rule:nonzero;fill:rgb(0%,0%,0%);fill-opacity:1;" d="M 24.945312 45.363281 C 24.875 45.363281 24.808594 45.359375 24.738281 45.351562 C 23.695312 45.238281 22.9375 44.300781 23.046875 43.253906 C 24.167969 32.738281 34.382812 28.476562 39.628906 27.695312 C 40.667969 27.539062 41.636719 28.253906 41.792969 29.296875 C 41.949219 30.339844 41.234375 31.304688 40.195312 31.464844 C 39.695312 31.539062 27.921875 33.464844 26.835938 43.65625 C 26.730469 44.636719 25.90625 45.363281 24.945312 45.363281 Z M 24.945312 45.363281 "/>
</g>
</svg>
