<?xml version="1.0" encoding="UTF-8"?>
<svg xmlns="http://www.w3.org/2000/svg" xmlns:xlink="http://www.w3.org/1999/xlink" width="50px" height="50px" viewBox="0 0 50 50" version="1.1">
<g id="surface1">
<path style=" stroke:none;fill-rule:nonzero;fill:rgb(0%,0%,0%);fill-opacity:1;" d="M 35.9375 17.1875 L 30.726562 17.1875 L 35.066406 12.226562 C 35.628906 11.585938 35.9375 10.761719 35.9375 9.910156 L 35.9375 9.765625 C 35.9375 7.828125 34.359375 6.25 32.421875 6.25 C 30.484375 6.25 28.90625 7.828125 28.90625 9.765625 L 28.90625 10.9375 L 30.46875 10.9375 L 30.46875 9.765625 C 30.46875 8.6875 31.34375 7.8125 32.421875 7.8125 C 33.5 7.8125 34.375 8.6875 34.375 9.765625 L 34.375 9.910156 C 34.375 10.382812 34.203125 10.839844 33.890625 11.195312 L 28.90625 16.894531 L 28.90625 18.75 L 35.9375 18.75 Z M 35.9375 17.1875 "/>
<path style=" stroke:none;fill-rule:nonzero;fill:rgb(0%,0%,0%);fill-opacity:1;" d="M 42.1875 18.75 L 43.75 18.75 L 43.75 16.40625 L 45.3125 16.40625 L 45.3125 14.84375 L 43.75 14.84375 L 43.75 6.25 L 41.703125 6.25 L 37.5 14.660156 L 37.5 16.40625 L 42.1875 16.40625 Z M 39.15625 14.84375 L 42.1875 8.777344 L 42.1875 14.84375 Z M 39.15625 14.84375 "/>
<path style=" stroke:none;fill-rule:nonzero;fill:rgb(0%,0%,0%);fill-opacity:1;" d="M 39.378906 25.488281 C 44.996094 24.265625 49.21875 19.261719 49.21875 13.28125 C 49.21875 6.390625 43.609375 0.78125 36.71875 0.78125 C 30.738281 0.78125 25.734375 5.003906 24.511719 10.621094 C 23.132812 10.316406 21.722656 10.15625 20.3125 10.15625 C 9.542969 10.15625 0.78125 18.917969 0.78125 29.6875 C 0.78125 40.457031 9.542969 49.21875 20.3125 49.21875 C 31.082031 49.21875 39.84375 40.457031 39.84375 29.6875 C 39.84375 28.277344 39.683594 26.867188 39.378906 25.488281 Z M 36.71875 2.34375 C 42.75 2.34375 47.65625 7.25 47.65625 13.28125 C 47.65625 19.3125 42.75 24.21875 36.71875 24.21875 C 30.6875 24.21875 25.78125 19.3125 25.78125 13.28125 C 25.78125 7.25 30.6875 2.34375 36.71875 2.34375 Z M 35.125 28.90625 L 33.59375 28.90625 L 33.59375 30.46875 L 35.117188 30.46875 C 34.933594 33.972656 33.535156 37.152344 31.328125 39.601562 L 30.253906 38.527344 L 29.152344 39.628906 L 30.226562 40.703125 C 27.777344 42.910156 24.597656 44.308594 21.09375 44.492188 L 21.09375 42.96875 L 19.53125 42.96875 L 19.53125 44.492188 C 16.027344 44.308594 12.847656 42.910156 10.398438 40.703125 L 11.472656 39.628906 L 10.371094 38.527344 L 9.296875 39.601562 C 7.089844 37.152344 5.691406 33.972656 5.507812 30.46875 L 7.03125 30.46875 L 7.03125 28.90625 L 5.507812 28.90625 C 5.691406 25.402344 7.089844 22.222656 9.296875 19.773438 L 10.371094 20.847656 L 11.472656 19.746094 L 10.398438 18.671875 C 12.847656 16.464844 16.027344 15.066406 19.53125 14.882812 L 19.53125 16.40625 L 21.09375 16.40625 L 21.09375 14.875 C 22.21875 14.933594 23.328125 15.121094 24.417969 15.4375 C 25.320312 20.601562 29.398438 24.679688 34.5625 25.582031 C 34.875 26.671875 35.066406 27.78125 35.125 28.90625 Z M 20.3125 47.65625 C 10.402344 47.65625 2.34375 39.597656 2.34375 29.6875 C 2.34375 19.777344 10.402344 11.71875 20.3125 11.71875 C 21.644531 11.71875 22.972656 11.875 24.273438 12.167969 C 24.242188 12.535156 24.21875 12.90625 24.21875 13.28125 C 24.21875 13.445312 24.238281 13.605469 24.242188 13.765625 C 22.953125 13.445312 21.636719 13.28125 20.3125 13.28125 C 11.265625 13.28125 3.90625 20.640625 3.90625 29.6875 C 3.90625 38.734375 11.265625 46.09375 20.3125 46.09375 C 29.359375 46.09375 36.71875 38.734375 36.71875 29.6875 C 36.71875 28.363281 36.554688 27.046875 36.234375 25.757812 C 36.394531 25.761719 36.554688 25.78125 36.71875 25.78125 C 37.09375 25.78125 37.464844 25.757812 37.832031 25.726562 C 38.125 27.027344 38.28125 28.355469 38.28125 29.6875 C 38.28125 39.597656 30.222656 47.65625 20.3125 47.65625 Z M 20.3125 47.65625 "/>
<path style=" stroke:none;fill-rule:nonzero;fill:rgb(0%,0%,0%);fill-opacity:1;" d="M 22.65625 29.6875 C 22.65625 28.671875 22 27.8125 21.09375 27.488281 L 21.09375 17.96875 L 19.53125 17.96875 L 19.53125 27.488281 C 18.625 27.8125 17.96875 28.671875 17.96875 29.6875 C 17.96875 30.980469 19.019531 32.03125 20.3125 32.03125 C 20.671875 32.03125 21.011719 31.941406 21.316406 31.796875 L 26.792969 37.269531 L 27.894531 36.167969 L 22.421875 30.691406 C 22.566406 30.386719 22.65625 30.046875 22.65625 29.6875 Z M 19.53125 29.6875 C 19.53125 29.257812 19.882812 28.90625 20.3125 28.90625 C 20.742188 28.90625 21.09375 29.257812 21.09375 29.6875 C 21.09375 30.117188 20.742188 30.46875 20.3125 30.46875 C 19.882812 30.46875 19.53125 30.117188 19.53125 29.6875 Z M 19.53125 29.6875 "/>
<path style=" stroke:none;fill-rule:nonzero;fill:rgb(0%,0%,0%);fill-opacity:1;" d="M 43.75 27.34375 C 42.457031 27.34375 41.40625 28.394531 41.40625 29.6875 C 41.40625 30.664062 42.007812 31.503906 42.859375 31.855469 C 42.371094 36.996094 40.128906 41.839844 36.492188 45.546875 L 37.609375 46.640625 C 41.511719 42.65625 43.914062 37.449219 44.425781 31.921875 C 45.386719 31.628906 46.09375 30.746094 46.09375 29.6875 C 46.09375 28.394531 45.042969 27.34375 43.75 27.34375 Z M 43.75 30.46875 C 43.320312 30.46875 42.96875 30.117188 42.96875 29.6875 C 42.96875 29.257812 43.320312 28.90625 43.75 28.90625 C 44.179688 28.90625 44.53125 29.257812 44.53125 29.6875 C 44.53125 30.117188 44.179688 30.46875 43.75 30.46875 Z M 43.75 30.46875 "/>
<path style=" stroke:none;fill-rule:nonzero;fill:rgb(0%,0%,0%);fill-opacity:1;" d="M 4.910156 13.074219 C 8.546875 9.695312 13.230469 7.621094 18.148438 7.152344 C 18.503906 7.996094 19.339844 8.59375 20.3125 8.59375 C 21.605469 8.59375 22.65625 7.542969 22.65625 6.25 C 22.65625 4.957031 21.605469 3.90625 20.3125 3.90625 C 19.257812 3.90625 18.371094 4.613281 18.078125 5.574219 C 12.789062 6.0625 7.757812 8.300781 3.847656 11.925781 Z M 20.3125 5.46875 C 20.742188 5.46875 21.09375 5.820312 21.09375 6.25 C 21.09375 6.679688 20.742188 7.03125 20.3125 7.03125 C 19.882812 7.03125 19.53125 6.679688 19.53125 6.25 C 19.53125 5.820312 19.882812 5.46875 20.3125 5.46875 Z M 20.3125 5.46875 "/>
</g>
</svg>
